<svg width="308" height="156" viewBox="0 0 308 156" fill="none" xmlns="http://www.w3.org/2000/svg"><rect x="12.5" y="12.5" width="295" height="143" rx="7.5" fill="#fff"/><path d="M40.946 25.546v2.65h-8.063V43h-3.161V25.546h11.224zm6.35 17.71c-1.279 0-2.387-.282-3.324-.844-.938-.563-1.665-1.35-2.182-2.36-.512-1.012-.767-2.194-.767-3.546 0-1.353.255-2.537.767-3.554.517-1.017 1.244-1.807 2.182-2.37.937-.562 2.045-.843 3.323-.843 1.279 0 2.387.28 3.324.843.938.563 1.662 1.353 2.174 2.37.517 1.017.775 2.201.775 3.554 0 1.352-.258 2.534-.775 3.545-.512 1.011-1.236 1.798-2.174 2.36-.937.563-2.045.845-3.324.845zm.017-2.472c.693 0 1.272-.19 1.738-.57.466-.387.813-.904 1.04-1.552.233-.648.35-1.37.35-2.165 0-.801-.117-1.525-.35-2.173-.227-.654-.574-1.173-1.04-1.56-.466-.386-1.045-.58-1.739-.58-.71 0-1.3.194-1.772.58-.466.387-.816.906-1.048 1.56-.228.648-.341 1.372-.341 2.173 0 .796.113 1.517.34 2.165.233.648.583 1.165 1.049 1.551.471.38 1.062.571 1.773.571zm8.874 7.125v-18h3.034v2.165h.179a5.67 5.67 0 01.673-1.014c.29-.364.682-.674 1.176-.93.495-.26 1.125-.391 1.892-.391 1.012 0 1.924.258 2.736.775.818.512 1.466 1.27 1.943 2.276.483 1 .725 2.227.725 3.682 0 1.437-.236 2.659-.708 3.664-.471 1.006-1.113 1.773-1.926 2.301-.812.529-1.733.793-2.761.793-.75 0-1.372-.125-1.867-.375-.494-.25-.892-.551-1.193-.903a5.843 5.843 0 01-.69-1.014h-.128v6.971h-3.085zm3.025-11.454c0 .846.12 1.588.358 2.224.245.636.594 1.133 1.049 1.491.46.353 1.017.529 1.67.529.682 0 1.253-.182 1.713-.546.46-.369.807-.872 1.04-1.508.239-.642.358-1.372.358-2.19 0-.813-.117-1.535-.35-2.165-.233-.63-.58-1.125-1.04-1.483-.46-.358-1.033-.537-1.72-.537-.66 0-1.22.173-1.68.52-.46.346-.81.832-1.048 1.457-.233.625-.35 1.361-.35 2.208zm17.685 6.8c-1.278 0-2.386-.28-3.324-.843-.937-.563-1.665-1.35-2.182-2.36-.511-1.012-.767-2.194-.767-3.546 0-1.353.256-2.537.767-3.554.517-1.017 1.245-1.807 2.182-2.37.938-.562 2.046-.843 3.324-.843s2.386.28 3.324.843c.937.563 1.662 1.353 2.173 2.37.517 1.017.776 2.201.776 3.554 0 1.352-.259 2.534-.776 3.545-.511 1.011-1.236 1.798-2.173 2.36-.938.563-2.046.845-3.324.845zm.017-2.47c.693 0 1.273-.191 1.739-.572.466-.386.812-.903 1.04-1.551.232-.648.349-1.37.349-2.165 0-.801-.117-1.525-.35-2.173-.227-.654-.573-1.173-1.04-1.56-.465-.386-1.045-.58-1.738-.58-.71 0-1.301.194-1.773.58-.466.387-.815.906-1.048 1.56-.227.648-.34 1.372-.34 2.173 0 .796.113 1.517.34 2.165.233.648.582 1.165 1.048 1.551.472.38 1.063.571 1.773.571zM84.63 46.8v-6.34h1.04c.278-.217.511-.51.699-.879.187-.375.34-.815.46-1.32.125-.512.227-1.083.307-1.714.08-.636.15-1.32.213-2.054l.375-4.585h9.46V40.46h2.029v6.341H96.23V43h-8.566v3.801H84.63zm4.21-6.34h5.395v-8.063H90.4l-.204 2.096c-.114 1.387-.265 2.574-.452 3.563-.188.988-.489 1.79-.903 2.403zm18.386 2.795c-1.307 0-2.429-.287-3.366-.861a5.751 5.751 0 01-2.157-2.378c-.5-1.017-.75-2.188-.75-3.511 0-1.33.256-2.503.767-3.52.512-1.023 1.233-1.818 2.165-2.387.938-.573 2.046-.86 3.324-.86 1.063 0 2.003.196 2.821.588.824.386 1.48.934 1.969 1.645.489.704.767 1.528.835 2.471h-2.949a2.816 2.816 0 00-.852-1.576c-.443-.427-1.037-.64-1.781-.64-.631 0-1.185.17-1.662.512-.477.335-.85.818-1.117 1.449-.261.63-.392 1.386-.392 2.267 0 .892.131 1.659.392 2.3.262.637.628 1.128 1.1 1.475.477.341 1.037.512 1.679.512.454 0 .861-.086 1.218-.256a2.45 2.45 0 00.912-.759c.245-.33.412-.73.503-1.201h2.949c-.074.926-.346 1.747-.818 2.463-.472.71-1.114 1.267-1.926 1.67-.813.398-1.767.597-2.864.597zm8.141-.256V29.91h3.086v5.283h1.125l3.937-5.284h3.716l-4.849 6.426 4.9 6.665h-3.733l-3.588-4.935h-1.508V43h-3.086zm17.432.264c-.83 0-1.577-.148-2.242-.443a3.656 3.656 0 01-1.568-1.33c-.381-.585-.571-1.306-.571-2.164 0-.739.136-1.35.409-1.833a3.173 3.173 0 011.116-1.159 5.638 5.638 0 011.594-.656 12.967 12.967 0 011.85-.332c.767-.08 1.389-.151 1.866-.214.477-.068.824-.17 1.04-.306.221-.142.332-.361.332-.657v-.05c0-.643-.19-1.14-.571-1.492-.38-.352-.929-.529-1.645-.529-.755 0-1.355.165-1.798.495-.437.33-.733.718-.886 1.167l-2.881-.409c.227-.795.602-1.46 1.125-1.994a4.895 4.895 0 011.918-1.21c.755-.273 1.591-.41 2.505-.41.631 0 1.259.075 1.884.222a5.3 5.3 0 011.713.733c.517.335.932.793 1.244 1.372.318.58.478 1.304.478 2.174V43h-2.966v-1.798h-.103a3.753 3.753 0 01-.792 1.022c-.336.313-.759.566-1.27.759-.506.188-1.1.281-1.781.281zm.801-2.267c.619 0 1.156-.122 1.611-.366.454-.25.803-.58 1.048-.989.25-.409.375-.855.375-1.338V36.76c-.097.08-.262.154-.495.222a6.943 6.943 0 01-.767.179c-.284.051-.565.096-.843.136l-.725.103c-.46.062-.872.164-1.236.306a2.05 2.05 0 00-.86.597c-.211.25-.316.574-.316.972 0 .568.208.997.622 1.286.415.29.944.435 1.586.435zM150.55 43V32.415h-2.795c-.71 0-1.256.165-1.636.494-.381.33-.569.739-.563 1.227a1.51 1.51 0 00.537 1.21c.364.319.884.478 1.56.478h3.869v2.25h-3.869c-1.046 0-1.949-.165-2.711-.494-.761-.33-1.346-.796-1.755-1.398-.409-.602-.614-1.307-.614-2.114 0-.84.208-1.57.622-2.19.421-.625 1.017-1.108 1.79-1.449.778-.347 1.702-.52 2.77-.52h5.685V43h-2.89zm-8.454 0l3.656-6.716h3.043L145.13 43h-3.034zm30.895-17.932l1.074 1.994c-.381.33-.807.569-1.279.716a7.337 7.337 0 01-1.662.29c-.63.04-1.38.068-2.25.085-.977.023-1.775.208-2.395.554-.619.347-1.093.872-1.423 1.577-.329.699-.545 1.591-.648 2.676h.145c.409-.8.983-1.412 1.722-1.832.738-.42 1.605-.63 2.599-.63 1.086 0 2.043.243 2.872.732.836.483 1.486 1.185 1.952 2.105.472.92.708 2.034.708 3.341 0 1.347-.253 2.514-.759 3.503a5.416 5.416 0 01-2.156 2.276c-.926.534-2.026.8-3.299.8-1.267 0-2.369-.275-3.306-.826-.932-.557-1.654-1.378-2.165-2.463-.506-1.091-.759-2.435-.759-4.031v-1.177c0-3.079.574-5.377 1.722-6.894 1.148-1.517 2.849-2.29 5.105-2.319.671-.01 1.27-.014 1.798-.008.534.006 1-.02 1.398-.077a2.154 2.154 0 001.006-.392zm-4.781 15.716c.63 0 1.176-.162 1.636-.486.46-.33.812-.795 1.057-1.397.25-.603.375-1.316.375-2.14 0-.812-.125-1.503-.375-2.07-.25-.575-.605-1.012-1.066-1.313-.46-.301-1.008-.452-1.645-.452-.477 0-.906.085-1.286.256-.381.17-.705.42-.972.75s-.472.73-.614 1.201a6.08 6.08 0 00-.23 1.628c0 1.233.279 2.213.835 2.94.557.722 1.319 1.083 2.285 1.083zm14.531 2.472c-1.279 0-2.387-.282-3.324-.844-.938-.563-1.665-1.35-2.182-2.36-.511-1.012-.767-2.194-.767-3.546 0-1.353.256-2.537.767-3.554.517-1.017 1.244-1.807 2.182-2.37.937-.562 2.045-.843 3.324-.843 1.278 0 2.386.28 3.324.843.937.563 1.662 1.353 2.173 2.37.517 1.017.775 2.201.775 3.554 0 1.352-.258 2.534-.775 3.545a5.673 5.673 0 01-2.173 2.36c-.938.563-2.046.845-3.324.845zm.017-2.472c.693 0 1.273-.19 1.738-.57.466-.387.813-.904 1.04-1.552.233-.648.35-1.37.35-2.165 0-.801-.117-1.525-.35-2.173-.227-.654-.574-1.173-1.04-1.56-.465-.386-1.045-.58-1.738-.58-.71 0-1.301.194-1.773.58-.466.387-.815.906-1.048 1.56-.227.648-.341 1.372-.341 2.173 0 .796.114 1.517.341 2.165.233.648.582 1.165 1.048 1.551.472.38 1.063.571 1.773.571zM190.729 43l-.017-2.54h.451c.341 0 .628-.077.861-.23.233-.153.426-.409.58-.767.153-.364.272-.852.358-1.466.085-.614.145-1.378.179-2.292l.23-5.796h9.545V43h-2.983V32.44h-3.758l-.205 4.22c-.051 1.09-.173 2.036-.366 2.837-.188.796-.455 1.452-.801 1.969-.341.517-.77.903-1.287 1.159-.517.25-1.128.375-1.833.375h-.954zm17.382-8.83h3.861c1.67 0 2.963.407 3.877 1.22.915.812 1.375 1.877 1.381 3.195-.006.858-.216 1.62-.631 2.284-.409.665-1.005 1.188-1.789 1.569-.779.374-1.725.562-2.838.562h-5.949V29.91h2.974v10.559h2.975c.67 0 1.221-.17 1.653-.512.432-.346.648-.79.648-1.33a1.72 1.72 0 00-.648-1.388c-.432-.358-.983-.537-1.653-.537h-3.861V34.17zm20.755 1.006v2.531h-6.972v-2.53h6.972zm-6.017-5.267V43h-2.975V29.91h2.975zm8.037 0V43h-2.966V29.91h2.966zm6.096 8.915l5.241-8.915h3.17V43h-2.982v-8.923L237.186 43h-3.179V29.91h2.975v8.914zm22.634-8.915V40.7h2.003v6.511h-3.017V43h-10.04V29.91h2.974v10.559h5.131v-10.56h2.949zm8.299 13.355c-.83 0-1.577-.148-2.242-.443a3.656 3.656 0 01-1.568-1.33c-.381-.585-.571-1.306-.571-2.164 0-.739.136-1.35.409-1.833a3.167 3.167 0 011.117-1.159 5.632 5.632 0 011.593-.656 12.967 12.967 0 011.85-.332c.767-.08 1.389-.151 1.866-.214.478-.068.824-.17 1.04-.306.222-.142.332-.361.332-.657v-.05c0-.643-.19-1.14-.571-1.492-.38-.352-.929-.529-1.644-.529-.756 0-1.356.165-1.799.495-.437.33-.733.718-.886 1.167l-2.881-.409c.228-.795.603-1.46 1.125-1.994a4.895 4.895 0 011.918-1.21c.756-.273 1.591-.41 2.506-.41.63 0 1.258.075 1.883.222a5.3 5.3 0 011.713.733c.517.335.932.793 1.244 1.372.319.58.478 1.304.478 2.174V43h-2.966v-1.798h-.102a3.777 3.777 0 01-.793 1.022c-.335.313-.759.566-1.27.759-.506.188-1.099.281-1.781.281zm.801-2.267c.619 0 1.156-.122 1.611-.366a2.71 2.71 0 001.048-.989c.25-.409.375-.855.375-1.338v-1.543c-.097.08-.261.154-.494.222a7.052 7.052 0 01-.767.179c-.284.051-.566.096-.844.136l-.725.103c-.46.062-.872.164-1.235.306a2.047 2.047 0 00-.861.597c-.21.25-.315.574-.315.972 0 .568.207.997.622 1.286.414.29.943.435 1.585.435z" fill="#080809"/><path d="M30.09 67.273c-.226 0-.429-.02-.607-.057a1.604 1.604 0 01-.37-.102l.341-1.182c.326.083.614.114.864.09a1.03 1.03 0 00.665-.335c.197-.197.377-.516.54-.96l.25-.681-3.227-8.773H30l2.41 6.954h.09l2.41-6.954h1.454l-3.705 10c-.167.45-.373.824-.62 1.119-.245.3-.531.52-.857.665a2.645 2.645 0 01-1.091.216zM36.627 64v-1.25h.319c.261 0 .479-.051.653-.153.174-.107.314-.29.42-.552.11-.265.194-.632.25-1.102a20.21 20.21 0 00.131-1.807l.16-3.863h5.817V64h-1.34v-7.477H39.83l-.136 3.113c-.03.716-.095 1.347-.194 1.892-.094.542-.24.997-.437 1.364-.193.367-.45.644-.773.83-.322.185-.725.278-1.21.278h-.455zm11.188.09a.99.99 0 01-.722-.3.985.985 0 01-.3-.722c0-.28.1-.52.3-.721a.986.986 0 01.722-.302c.28 0 .52.1.721.302.201.2.302.44.302.721a.963.963 0 01-.142.512c-.091.155-.214.28-.37.375a.974.974 0 01-.511.136zm7.474-10.476v-1.25h8.728v1.25h-3.66V64h-1.409V53.614h-3.659zm10.584 13.659a3 3 0 01-.608-.057 1.604 1.604 0 01-.37-.102l.342-1.182c.326.083.613.114.863.09a1.03 1.03 0 00.665-.335c.197-.197.377-.516.54-.96l.25-.681-3.227-8.773h1.454l2.41 6.954h.09l2.41-6.954h1.454l-3.705 10a3.78 3.78 0 01-.619 1.119c-.246.3-.532.52-.858.665a2.645 2.645 0 01-1.09.216zm8.043 0v-12h1.295v1.386h.16c.098-.151.234-.345.408-.58.178-.238.432-.45.762-.636.333-.19.784-.284 1.352-.284.735 0 1.383.184 1.943.551.56.368.998.889 1.313 1.563.314.674.471 1.47.471 2.386 0 .924-.157 1.726-.471 2.404-.315.674-.75 1.197-1.307 1.568-.557.367-1.199.55-1.926.55-.56 0-1.01-.092-1.347-.278-.337-.189-.596-.403-.778-.642a8.63 8.63 0 01-.42-.602h-.114v4.614h-1.341zm1.318-7.637c0 .66.096 1.24.29 1.745.193.5.475.892.846 1.176.371.28.826.42 1.364.42.56 0 1.028-.147 1.403-.443.38-.3.663-.7.853-1.204.193-.508.29-1.072.29-1.694 0-.613-.095-1.166-.285-1.659-.185-.496-.468-.888-.846-1.176-.375-.291-.847-.437-1.415-.437-.546 0-1.004.138-1.375.414-.371.273-.652.656-.841 1.148-.19.489-.284 1.059-.284 1.71zm13.818-4.363v1.25h-4.045V64h-1.341v-8.727h5.386zm5.163 8.909c-.84 0-1.566-.186-2.176-.557a3.737 3.737 0 01-1.403-1.568c-.326-.674-.489-1.459-.489-2.352 0-.894.163-1.682.489-2.364.33-.686.788-1.22 1.375-1.602.59-.387 1.28-.58 2.068-.58.455 0 .903.076 1.347.227.443.152.846.398 1.21.739.364.337.653.784.87 1.34.215.558.323 1.243.323 2.058v.568h-6.727v-1.16h5.364c0-.492-.099-.931-.296-1.317a2.226 2.226 0 00-.83-.915c-.356-.224-.776-.335-1.26-.335-.535 0-.997.132-1.387.397a2.615 2.615 0 00-.892 1.023c-.209.42-.313.871-.313 1.352v.773c0 .66.114 1.218.341 1.676.231.455.551.801.96 1.04.41.235.885.352 1.427.352.352 0 .67-.049.954-.147.288-.103.536-.254.744-.455.209-.205.37-.458.483-.761l1.296.363c-.137.44-.366.826-.688 1.16-.322.329-.72.587-1.193.772a4.426 4.426 0 01-1.597.273zm11.495-5.16v1.25h-4.818v-1.25h4.818zm-4.5-3.75V64h-1.341v-8.727h1.341zm5.523 0V64h-1.341v-8.727h1.341zm6.107 8.91c-.84 0-1.566-.186-2.176-.557a3.733 3.733 0 01-1.403-1.568c-.326-.674-.489-1.459-.489-2.352 0-.894.163-1.682.489-2.364.329-.686.788-1.22 1.375-1.602.591-.387 1.28-.58 2.068-.58.455 0 .904.076 1.347.227a3.34 3.34 0 011.21.739c.364.337.653.784.869 1.34.216.558.324 1.243.324 2.058v.568h-6.727v-1.16h5.363c0-.492-.098-.931-.295-1.317a2.225 2.225 0 00-.83-.915c-.356-.224-.776-.335-1.261-.335-.534 0-.996.132-1.386.397a2.608 2.608 0 00-.892 1.023c-.209.42-.313.871-.313 1.352v.773c0 .66.114 1.218.341 1.676.231.455.551.801.96 1.04.409.235.885.352 1.426.352a2.9 2.9 0 00.955-.147c.288-.103.536-.254.744-.455.209-.205.37-.458.483-.761l1.296.363a2.88 2.88 0 01-.688 1.16 3.344 3.344 0 01-1.193.772 4.426 4.426 0 01-1.597.273zm5.654-.182v-8.727h3.568c.939 0 1.686.212 2.239.636.553.424.829.985.829 1.682 0 .53-.157.941-.471 1.233-.315.288-.718.483-1.211.585.322.046.635.16.938.341.307.182.561.432.761.75.201.314.301.7.301 1.16 0 .446-.113.846-.34 1.198-.228.352-.553.63-.978.835-.424.205-.932.307-1.522.307h-4.114zm1.273-1.227h2.841c.462 0 .823-.11 1.085-.33.261-.22.392-.519.392-.898 0-.45-.131-.805-.392-1.062-.262-.261-.623-.392-1.085-.392h-2.841v2.682zm0-3.841h2.295c.36 0 .669-.05.926-.148a1.3 1.3 0 00.591-.432c.14-.19.21-.413.21-.67a.988.988 0 00-.46-.864c-.307-.212-.729-.318-1.267-.318h-2.295v2.432zm10.279 5.272a3.543 3.543 0 01-1.505-.312 2.582 2.582 0 01-1.074-.915c-.265-.401-.398-.886-.398-1.454 0-.5.099-.906.296-1.216.197-.315.46-.56.789-.739a4.2 4.2 0 011.091-.398c.402-.09.805-.162 1.211-.215.53-.069.96-.12 1.289-.154.334-.038.576-.1.728-.187.155-.087.233-.239.233-.455v-.045c0-.561-.154-.997-.461-1.307-.303-.31-.763-.466-1.38-.466-.641 0-1.142.14-1.506.42-.364.28-.619.58-.767.898l-1.273-.454c.227-.53.53-.944.909-1.24.383-.298.8-.507 1.25-.624a5.196 5.196 0 011.341-.182c.28 0 .602.034.966.102.368.065.722.2 1.063.404.344.204.63.513.858.926.227.413.34.966.34 1.659V64h-1.34v-1.182h-.069c-.091.19-.242.392-.454.608-.212.216-.494.4-.847.551-.352.152-.782.227-1.29.227zM130.25 63c.53 0 .977-.104 1.341-.313.367-.208.644-.477.829-.806.19-.33.285-.676.285-1.04v-1.227c-.057.068-.182.13-.375.187-.19.053-.41.1-.66.142a29.56 29.56 0 01-1.284.17 5.19 5.19 0 00-.977.222 1.681 1.681 0 00-.727.45c-.182.196-.273.465-.273.806 0 .466.172.818.517 1.057.349.235.79.352 1.324.352zm8.243-.59l-.091.613a12.43 12.43 0 01-.295 1.386c-.129.492-.264.956-.404 1.392-.14.436-.256.782-.346 1.04h-1.023l.193-.96c.08-.398.159-.843.239-1.335.083-.49.151-.99.204-1.5l.068-.637h1.455zm11.052-10.046V64h-1.409V53.84h-.068l-2.841 1.887v-1.431l2.909-1.932h1.409zm7.143 11.795c-.857 0-1.586-.233-2.188-.699-.602-.47-1.062-1.15-1.381-2.04-.318-.894-.477-1.973-.477-3.238 0-1.258.159-2.332.477-3.222.322-.894.784-1.575 1.387-2.045.606-.474 1.333-.71 2.182-.71.848 0 1.573.236 2.176.71.606.47 1.068 1.151 1.386 2.045.322.89.483 1.964.483 3.222 0 1.265-.159 2.344-.477 3.238-.318.89-.779 1.57-1.381 2.04-.602.466-1.331.7-2.187.7zm0-1.25c.848 0 1.507-.409 1.977-1.227.469-.818.704-1.985.704-3.5 0-1.008-.108-1.866-.324-2.574-.212-.708-.518-1.248-.92-1.62a2.032 2.032 0 00-1.437-.556c-.841 0-1.499.415-1.972 1.244-.474.826-.71 1.994-.71 3.506 0 1.007.106 1.863.318 2.568.212.705.517 1.24.915 1.608a2.07 2.07 0 001.449.551z" fill="#545758"/><path d="M35.585 104.273V113h-1.057v-7.79h-4.397V113h-1.057v-8.727h6.511zm1.996 11.182v-9h.971v1.039h.12c.073-.113.176-.258.306-.434a1.81 1.81 0 01.571-.478c.25-.142.588-.213 1.015-.213.55 0 1.036.138 1.457.414.42.275.748.666.984 1.172.236.505.354 1.102.354 1.789 0 .694-.118 1.294-.354 1.803-.236.506-.562.898-.98 1.176-.417.276-.899.413-1.444.413-.42 0-.758-.069-1.01-.208a1.87 1.87 0 01-.584-.482 6.332 6.332 0 01-.316-.452h-.085v3.461h-1.005zm.988-5.728c0 .495.073.931.218 1.309.145.375.356.669.635.882.278.21.619.315 1.022.315.42 0 .772-.111 1.053-.332.284-.225.497-.526.639-.904.145-.381.217-.804.217-1.27 0-.46-.07-.875-.213-1.244a1.924 1.924 0 00-.635-.882c-.28-.219-.635-.328-1.06-.328-.41 0-.754.103-1.032.311a1.862 1.862 0 00-.63.861c-.143.366-.214.794-.214 1.282zm9.068 3.409c-.63 0-1.174-.139-1.632-.417a2.806 2.806 0 01-1.052-1.176c-.245-.506-.367-1.094-.367-1.765 0-.67.123-1.261.367-1.772.247-.515.59-.915 1.031-1.202.443-.29.96-.435 1.551-.435.341 0 .678.057 1.01.171.332.113.635.298.908.554.272.253.49.588.652 1.005.162.418.243.932.243 1.543v.426h-5.046v-.869h4.023c0-.369-.074-.699-.222-.989a1.67 1.67 0 00-.622-.686 1.748 1.748 0 00-.946-.251c-.4 0-.747.099-1.04.298-.29.196-.512.452-.669.767a2.251 2.251 0 00-.234 1.014v.58c0 .494.085.913.256 1.257.173.341.413.601.72.78.307.176.663.264 1.07.264.264 0 .502-.037.715-.111a1.54 1.54 0 00.559-.341c.156-.153.277-.344.362-.571l.971.273a2.158 2.158 0 01-.515.869 2.52 2.52 0 01-.895.58 3.327 3.327 0 01-1.198.204zm3.542 1.739v-2.813h.545a2.487 2.487 0 00.597-1.026 5.39 5.39 0 00.187-.819c.051-.324.097-.714.136-1.172l.222-2.59h4.16v5.607h1.005v2.813h-1.006V113h-4.84v1.875h-1.006zm1.687-2.813h3.154v-4.67h-2.216l-.17 1.653c-.072.685-.16 1.283-.265 1.794-.105.512-.273.92-.503 1.223zm6.5.938v-6.545h5.147V113h-1.005v-5.608H60.37V113h-1.005zm9.643.136c-.59 0-1.11-.14-1.555-.422a2.862 2.862 0 01-1.04-1.18c-.247-.506-.37-1.097-.37-1.773 0-.681.123-1.277.37-1.785.25-.509.597-.904 1.04-1.185.446-.281.964-.422 1.555-.422s1.108.141 1.551.422c.446.281.793.676 1.04 1.185.25.508.375 1.104.375 1.785 0 .676-.125 1.267-.375 1.773a2.822 2.822 0 01-1.04 1.18c-.443.282-.96.422-1.55.422zm0-.903c.45 0 .818-.115 1.108-.345.29-.23.504-.533.644-.908a3.48 3.48 0 00.209-1.219c0-.437-.07-.845-.21-1.223a2.066 2.066 0 00-.643-.916c-.29-.233-.659-.349-1.108-.349-.449 0-.818.116-1.108.349-.29.233-.504.539-.643.916-.14.378-.209.786-.209 1.223 0 .438.07.844.209 1.219.139.375.354.678.643.908.29.23.66.345 1.108.345zm3.922.767v-.938h.238a.95.95 0 00.49-.115c.131-.079.236-.217.316-.413.082-.199.145-.474.187-.827.046-.355.078-.806.098-1.355l.12-2.897h4.363V113h-1.005v-5.608h-2.404l-.102 2.335c-.023.537-.071 1.01-.145 1.419a3.4 3.4 0 01-.328 1.023 1.498 1.498 0 01-.58.622c-.241.139-.544.209-.907.209h-.341zm9.584.153c-.415 0-.792-.078-1.13-.234a1.94 1.94 0 01-.805-.686c-.199-.301-.298-.665-.298-1.091 0-.375.074-.679.221-.912.148-.236.345-.42.593-.554a3.12 3.12 0 01.818-.298 10.1 10.1 0 01.907-.162c.398-.051.72-.09.968-.115.25-.029.431-.075.545-.141.117-.065.175-.179.175-.341v-.034c0-.42-.115-.747-.345-.98-.228-.233-.573-.349-1.036-.349-.48 0-.856.105-1.13.315-.272.21-.464.435-.574.673l-.955-.341c.17-.397.398-.707.682-.929.287-.224.6-.38.937-.468a3.89 3.89 0 011.006-.137 4 4 0 01.725.077c.275.048.54.149.796.303.259.153.473.385.644.694.17.31.256.725.256 1.245V113h-1.006v-.886h-.051a1.77 1.77 0 01-.341.456c-.16.162-.37.299-.635.413-.264.114-.587.17-.967.17zm.153-.903c.398 0 .733-.078 1.006-.234a1.602 1.602 0 00.835-1.385v-.921c-.043.051-.136.098-.281.141a4.63 4.63 0 01-.495.106 20.937 20.937 0 01-.963.128 3.89 3.89 0 00-.733.166 1.262 1.262 0 00-.545.337c-.136.148-.205.349-.205.605 0 .35.13.614.388.793.261.176.592.264.993.264zm8.722-5.795v.937h-3.034V113H87.35v-6.545h4.04zm3.054 6.698c-.415 0-.79-.078-1.129-.234a1.94 1.94 0 01-.805-.686c-.2-.301-.299-.665-.299-1.091 0-.375.074-.679.222-.912.148-.236.345-.42.592-.554a3.12 3.12 0 01.818-.298 10.1 10.1 0 01.908-.162c.398-.051.72-.09.967-.115.25-.029.432-.075.546-.141.116-.065.175-.179.175-.341v-.034c0-.42-.115-.747-.346-.98-.227-.233-.572-.349-1.035-.349-.48 0-.857.105-1.13.315-.272.21-.464.435-.575.673l-.954-.341c.17-.397.397-.707.682-.929.287-.224.599-.38.937-.468a3.89 3.89 0 011.006-.137 4 4 0 01.724.077c.276.048.541.149.797.303.259.153.473.385.644.694.17.31.255.725.255 1.245V113H96.44v-.886h-.052a1.773 1.773 0 01-.34.456c-.16.162-.371.299-.635.413-.265.114-.587.17-.968.17zm.154-.903c.397 0 .733-.078 1.005-.234a1.601 1.601 0 00.836-1.385v-.921c-.043.051-.137.098-.282.141a4.63 4.63 0 01-.494.106 21.062 21.062 0 01-.963.128c-.261.034-.506.09-.733.166a1.261 1.261 0 00-.546.337c-.136.148-.204.349-.204.605 0 .35.13.614.388.793.261.176.592.264.993.264zm7.426.886c-.631 0-1.175-.139-1.632-.417a2.806 2.806 0 01-1.052-1.176c-.245-.506-.367-1.094-.367-1.765 0-.67.122-1.261.367-1.772.247-.515.59-.915 1.031-1.202.443-.29.96-.435 1.551-.435.341 0 .677.057 1.01.171.332.113.635.298.907.554.273.253.491.588.652 1.005.162.418.243.932.243 1.543v.426h-5.045v-.869h4.023c0-.369-.074-.699-.222-.989a1.67 1.67 0 00-.622-.686 1.746 1.746 0 00-.946-.251c-.401 0-.747.099-1.04.298a1.96 1.96 0 00-.669.767 2.254 2.254 0 00-.234 1.014v.58c0 .494.085.913.255 1.257.174.341.414.601.721.78.306.176.663.264 1.069.264.264 0 .503-.037.716-.111.216-.077.402-.19.558-.341a1.55 1.55 0 00.363-.571l.971.273a2.149 2.149 0 01-.516.869 2.507 2.507 0 01-.894.58 3.334 3.334 0 01-1.198.204zm7.82-1.5l2.284-5.181h.954L110.253 113h-.818l-2.779-6.545h.938l2.25 5.181zm-2.574-5.181V113h-1.006v-6.545h1.006zm5.148 6.545v-6.545h1.005V113h-1.005zm5.505.136c-.591 0-1.109-.14-1.555-.422a2.863 2.863 0 01-1.04-1.18c-.247-.506-.371-1.097-.371-1.773 0-.681.124-1.277.371-1.785.25-.509.597-.904 1.04-1.185.446-.281.964-.422 1.555-.422s1.108.141 1.551.422c.446.281.793.676 1.04 1.185.25.508.375 1.104.375 1.785 0 .676-.125 1.267-.375 1.773a2.822 2.822 0 01-1.04 1.18c-.443.282-.96.422-1.551.422zm0-.903c.449 0 .818-.115 1.108-.345.29-.23.505-.533.644-.908a3.48 3.48 0 00.209-1.219c0-.437-.07-.845-.209-1.223a2.063 2.063 0 00-.644-.916c-.29-.233-.659-.349-1.108-.349-.449 0-.818.116-1.108.349a2.07 2.07 0 00-.643.916 3.518 3.518 0 00-.209 1.223c0 .438.07.844.209 1.219.139.375.354.678.643.908.29.23.659.345 1.108.345zm7.246.903c-.631 0-1.175-.139-1.632-.417a2.803 2.803 0 01-1.053-1.176c-.244-.506-.366-1.094-.366-1.765 0-.67.122-1.261.366-1.772a2.888 2.888 0 011.031-1.202c.443-.29.96-.435 1.551-.435.341 0 .678.057 1.01.171.333.113.635.298.908.554.273.253.49.588.652 1.005.162.418.243.932.243 1.543v.426h-5.046v-.869h4.023c0-.369-.074-.699-.221-.989a1.673 1.673 0 00-.623-.686 1.746 1.746 0 00-.946-.251c-.4 0-.747.099-1.039.298a1.96 1.96 0 00-.669.767 2.242 2.242 0 00-.235 1.014v.58c0 .494.085.913.256 1.257.173.341.413.601.72.78.307.176.663.264 1.07.264.264 0 .503-.037.716-.111.215-.077.402-.19.558-.341.156-.153.277-.344.362-.571l.972.273a2.171 2.171 0 01-.516.869c-.241.247-.54.441-.895.58a3.325 3.325 0 01-1.197.204zM28.921 128v-6.545h1.005v2.846h.665l2.352-2.846h1.296l-2.642 3.153L34.273 128h-1.296l-2.147-2.761h-.904V128h-1.005zm8.834.136c-.59 0-1.109-.14-1.555-.422a2.861 2.861 0 01-1.04-1.18c-.247-.506-.37-1.097-.37-1.773 0-.681.123-1.277.37-1.785.25-.509.597-.904 1.04-1.185.446-.281.964-.422 1.555-.422s1.108.141 1.551.422a2.81 2.81 0 011.04 1.185c.25.508.375 1.104.375 1.785 0 .676-.125 1.267-.375 1.773a2.822 2.822 0 01-1.04 1.18c-.443.282-.96.422-1.55.422zm0-.903c.45 0 .819-.115 1.108-.345.29-.23.505-.533.644-.908s.209-.781.209-1.219c0-.437-.07-.845-.21-1.223a2.065 2.065 0 00-.643-.916c-.29-.233-.659-.349-1.108-.349-.449 0-.818.116-1.108.349-.29.233-.504.539-.643.916-.14.378-.209.786-.209 1.223 0 .438.07.844.209 1.219.14.375.354.678.643.908.29.23.66.345 1.108.345zm3.922.767v-.938h.239a.953.953 0 00.49-.115c.13-.079.235-.217.315-.413.082-.199.145-.474.187-.827.046-.355.078-.806.098-1.355l.12-2.897h4.363V128h-1.005v-5.608H44.08l-.102 2.335c-.023.537-.071 1.01-.145 1.419-.07.407-.18.747-.328 1.023a1.498 1.498 0 01-.58.622c-.241.139-.544.209-.907.209h-.341zm11.407-4.21v.937h-3.818v-.937h3.819zm1.77 4.21v-6.545h2.676c.705 0 1.264.159 1.68.477.414.318.621.738.621 1.261 0 .398-.118.706-.353.925-.236.216-.539.362-.908.439.241.034.476.119.703.255.23.137.42.324.571.563.15.236.226.526.226.869 0 .336-.085.635-.256.899-.17.265-.414.473-.733.627-.318.153-.699.23-1.142.23h-3.085zm.955-.92h2.13c.347 0 .618-.083.814-.248.196-.164.294-.389.294-.673 0-.338-.098-.604-.294-.797-.196-.196-.467-.294-.814-.294h-2.13v2.012zm0-2.881h1.721c.27 0 .502-.037.695-.111a.986.986 0 00.443-.324.82.82 0 00.158-.503.74.74 0 00-.346-.647c-.23-.159-.546-.239-.95-.239h-1.72v1.824zm8.442 3.937c-.59 0-1.109-.14-1.555-.422a2.861 2.861 0 01-1.04-1.18c-.247-.506-.37-1.097-.37-1.773 0-.681.123-1.277.37-1.785.25-.509.597-.904 1.04-1.185.446-.281.965-.422 1.555-.422.591 0 1.108.141 1.552.422.446.281.792.676 1.04 1.185.25.508.374 1.104.374 1.785 0 .676-.125 1.267-.375 1.773a2.822 2.822 0 01-1.04 1.18c-.443.282-.96.422-1.55.422zm0-.903c.45 0 .819-.115 1.108-.345.29-.23.505-.533.644-.908s.209-.781.209-1.219c0-.437-.07-.845-.21-1.223a2.066 2.066 0 00-.643-.916c-.29-.233-.659-.349-1.108-.349-.448 0-.818.116-1.108.349-.29.233-.504.539-.643.916-.14.378-.209.786-.209 1.223 0 .438.07.844.209 1.219.14.375.354.678.644.908.29.23.659.345 1.107.345zm7.297.767v-.938h.239a.953.953 0 00.49-.115c.13-.079.235-.217.315-.413.082-.199.145-.474.188-.827.045-.355.078-.806.097-1.355l.12-2.897h4.363V128h-1.005v-5.608H73.95l-.102 2.335c-.023.537-.07 1.01-.145 1.419-.07.407-.18.747-.328 1.023a1.498 1.498 0 01-.58.622c-.241.139-.544.209-.907.209h-.341zm10.794-3.682v.938h-3.46v-.938h3.46zm-2.608-2.863V128h-1.006v-6.545h1.006zm4.62 6.681c-.592 0-1.11-.14-1.556-.422a2.862 2.862 0 01-1.04-1.18c-.247-.506-.37-1.097-.37-1.773 0-.681.123-1.277.37-1.785.25-.509.597-.904 1.04-1.185.446-.281.964-.422 1.555-.422s1.108.141 1.552.422c.445.281.792.676 1.04 1.185.25.508.374 1.104.374 1.785 0 .676-.125 1.267-.375 1.773a2.822 2.822 0 01-1.04 1.18c-.443.282-.96.422-1.55.422zm0-.903c.448 0 .817-.115 1.107-.345.29-.23.505-.533.644-.908s.209-.781.209-1.219c0-.437-.07-.845-.21-1.223a2.065 2.065 0 00-.643-.916c-.29-.233-.659-.349-1.108-.349-.448 0-.818.116-1.108.349-.29.233-.504.539-.643.916-.14.378-.209.786-.209 1.223 0 .438.07.844.209 1.219.14.375.354.678.643.908.29.23.66.345 1.108.345zm3.903 2.642v-2.813h.545c.134-.139.249-.289.345-.451.097-.162.18-.354.252-.575.074-.225.136-.498.187-.819.051-.324.097-.714.137-1.172l.221-2.59h4.16v5.607h1.005v2.813h-1.006V128h-4.84v1.875h-1.006zm1.687-2.813h3.154v-4.67h-2.216l-.17 1.653c-.072.685-.16 1.283-.265 1.794-.105.512-.273.92-.503 1.223zm9.244 1.074c-.63 0-1.175-.139-1.632-.417a2.806 2.806 0 01-1.052-1.176c-.245-.506-.367-1.094-.367-1.765 0-.67.122-1.261.367-1.772.247-.515.59-.915 1.03-1.202.444-.29.961-.435 1.552-.435a3.1 3.1 0 011.01.171c.332.113.635.298.908.554.272.253.49.588.652 1.005.161.418.242.932.242 1.543v.426h-5.045v-.869h4.023c0-.369-.074-.699-.222-.989a1.67 1.67 0 00-.622-.686 1.748 1.748 0 00-.946-.251c-.4 0-.747.099-1.04.298a1.96 1.96 0 00-.669.767 2.251 2.251 0 00-.234 1.014v.58c0 .494.085.913.255 1.257.174.341.414.601.72.78.307.176.664.264 1.07.264.264 0 .503-.037.716-.111.216-.077.402-.19.558-.341a1.55 1.55 0 00.363-.571l.971.273a2.158 2.158 0 01-.515.869 2.52 2.52 0 01-.895.58 3.328 3.328 0 01-1.198.204zm5.246-1.619l3.153-5.062h1.159V128h-1.005v-5.062L104.604 128h-1.176v-6.545h1.006v5.062zm2.489-7.244h.937c0 .46-.159.836-.477 1.129-.318.293-.75.439-1.296.439-.537 0-.964-.146-1.282-.439-.316-.293-.473-.669-.473-1.129h.937c0 .221.061.416.183.584.125.167.337.251.635.251.299 0 .512-.084.64-.251a.929.929 0 00.196-.584z" fill="#75797B"/><rect x="155.5" y="84.5" width="62" height="63" rx="7.5" fill="#fff"/><path d="M170.815 115.239c-1.227 0-2.318-.211-3.272-.631-.949-.421-1.699-1.006-2.25-1.756-.552-.75-.844-1.616-.878-2.599h3.204c.029.471.185.883.469 1.236.284.346.662.616 1.134.809.471.193 1 .29 1.585.29.625 0 1.179-.108 1.662-.324a2.72 2.72 0 001.133-.92c.273-.392.407-.844.401-1.355a2.353 2.353 0 00-.409-1.398c-.279-.404-.682-.719-1.21-.946-.523-.227-1.154-.341-1.893-.341h-1.542v-2.438h1.542c.608 0 1.14-.105 1.594-.315.46-.21.821-.506 1.083-.886.261-.387.389-.833.383-1.338.006-.495-.105-.924-.332-1.287a2.246 2.246 0 00-.946-.861c-.404-.205-.878-.307-1.424-.307-.534 0-1.028.097-1.483.29a2.696 2.696 0 00-1.099.827 2.095 2.095 0 00-.443 1.261h-3.043c.023-.977.304-1.835.844-2.574.545-.744 1.273-1.324 2.182-1.739.909-.42 1.929-.63 3.059-.63 1.165 0 2.177.219 3.035.656.863.432 1.531 1.014 2.002 1.747.472.733.708 1.543.708 2.429.005.983-.284 1.807-.87 2.472-.579.665-1.34 1.099-2.284 1.304v.136c1.228.171 2.168.625 2.821 1.364.66.733.986 1.645.981 2.736a4.38 4.38 0 01-.836 2.625c-.551.767-1.312 1.369-2.284 1.806-.966.438-2.074.657-3.324.657zm15.437 0c-1.136 0-2.153-.213-3.051-.64-.898-.431-1.611-1.022-2.139-1.772-.523-.75-.801-1.608-.835-2.574h3.068c.057.716.366 1.301.929 1.756.562.448 1.238.673 2.028.673.619 0 1.171-.142 1.654-.426a3.063 3.063 0 001.142-1.185c.278-.506.414-1.082.409-1.73.005-.659-.134-1.244-.418-1.756a3.114 3.114 0 00-1.168-1.201c-.494-.296-1.062-.444-1.704-.444a4.073 4.073 0 00-1.543.29c-.505.199-.906.46-1.201.784l-2.856-.469.912-9h10.125v2.643h-7.508l-.503 4.627h.102c.324-.38.782-.696 1.372-.946a4.855 4.855 0 011.944-.383c1.056 0 2 .25 2.829.75a5.296 5.296 0 011.96 2.045c.478.87.716 1.864.716 2.983 0 1.154-.267 2.182-.801 3.085a5.664 5.664 0 01-2.207 2.123c-.938.511-2.023.767-3.256.767zm15.511 0a7.386 7.386 0 01-2.446-.435 5.762 5.762 0 01-2.147-1.406c-.637-.654-1.142-1.52-1.517-2.6-.375-1.085-.56-2.429-.554-4.031 0-1.494.159-2.827.477-3.997.318-1.171.776-2.159 1.372-2.966.597-.813 1.315-1.432 2.156-1.858.847-.426 1.793-.64 2.838-.64 1.097 0 2.069.217 2.915.648a5.49 5.49 0 012.063 1.773 5.62 5.62 0 01.971 2.523h-3.11c-.16-.67-.486-1.205-.981-1.602-.488-.404-1.108-.605-1.858-.605-1.21 0-2.142.525-2.795 1.576-.648 1.051-.974 2.495-.98 4.33h.119c.279-.5.639-.929 1.083-1.287a4.938 4.938 0 011.5-.827 5.297 5.297 0 011.781-.298c1.023 0 1.94.244 2.753.733a5.314 5.314 0 011.943 2.02c.477.852.713 1.829.707 2.932.006 1.147-.255 2.179-.784 3.093a5.691 5.691 0 01-2.207 2.148c-.943.523-2.043.781-3.299.776zm-.017-2.557c.62 0 1.174-.151 1.662-.452a3.263 3.263 0 001.159-1.219 3.405 3.405 0 00.418-1.721 3.39 3.39 0 00-.409-1.696 3.115 3.115 0 00-1.134-1.202c-.482-.295-1.034-.443-1.653-.443-.46 0-.889.088-1.287.264a3.208 3.208 0 00-1.04.733 3.46 3.46 0 00-.699 1.074c-.164.403-.25.835-.255 1.295a3.52 3.52 0 00.426 1.679c.278.512.662.921 1.151 1.228.488.306 1.042.46 1.661.46z" fill="#126F8C"/><path d="M166.295 138.5v-3.75h.728c.178-.186.331-.386.46-.602.129-.216.24-.472.335-.767.099-.3.182-.663.25-1.091.068-.432.129-.953.182-1.563l.295-3.454h5.546v7.477h1.341v3.75h-1.341V136h-6.455v2.5h-1.341zm2.25-3.75h4.205v-6.227h-2.955l-.227 2.204a24.83 24.83 0 01-.352 2.392c-.14.682-.364 1.226-.671 1.631zm14.508-3.727v1.25h-4.819v-1.25h4.819zm-4.5-3.75V136h-1.341v-8.727h1.341zm5.522 0V136h-1.341v-8.727h1.341zm6.108 8.909c-.841 0-1.566-.186-2.176-.557a3.736 3.736 0 01-1.403-1.568c-.326-.674-.489-1.459-.489-2.352 0-.894.163-1.682.489-2.364.329-.686.788-1.22 1.375-1.602.591-.387 1.28-.58 2.068-.58.454 0 .903.076 1.346.227.444.152.847.398 1.211.739.363.337.653.784.869 1.341.216.557.324 1.242.324 2.057v.568h-6.727v-1.159h5.363c0-.493-.098-.932-.295-1.318a2.219 2.219 0 00-.83-.915c-.356-.224-.776-.335-1.261-.335-.534 0-.996.132-1.386.397a2.627 2.627 0 00-.893 1.023 3.01 3.01 0 00-.312 1.352v.773c0 .659.114 1.218.341 1.676.231.455.551.801.96 1.04.409.235.885.352 1.426.352.353 0 .671-.049.955-.147.288-.103.536-.254.744-.455.208-.205.369-.458.483-.761l1.296.363c-.137.44-.366.826-.688 1.159-.322.33-.72.587-1.193.773a4.425 4.425 0 01-1.597.273zm-1.841-10.364a.885.885 0 01-.636-.273.882.882 0 01-.273-.636c0-.261.091-.477.273-.648a.905.905 0 01.636-.261c.262 0 .478.087.648.261a.87.87 0 01.261.648.902.902 0 01-.261.636.848.848 0 01-.648.273zm3.273 0a.882.882 0 01-.636-.273.882.882 0 01-.273-.636c0-.261.091-.477.273-.648a.902.902 0 01.636-.261.87.87 0 01.648.261.87.87 0 01.261.648.902.902 0 01-.261.636.851.851 0 01-.648.273zm8.994 8.364l3.046-6.909h1.273L201.155 136h-1.091l-3.705-8.727h1.25l3 6.909zm-3.431-6.909V136h-1.341v-8.727h1.341zm6.863 8.727v-8.727h1.341V136h-1.341z" fill="#383A3C"/><rect x="155.5" y="84.5" width="62" height="63" rx="7.5" stroke="#126F8C"/><rect x="226.5" y="84.5" width="65" height="63" rx="7.5" fill="#fff"/><path d="M246.151 97.546V115h-3.162v-14.378h-.103l-4.082 2.608v-2.898l4.338-2.786h3.009zm4.116 14.215v-2.514l7.406-11.701h2.097v3.579h-1.279l-4.985 7.901v.136h10.338v2.599h-13.577zm8.327 3.239v-4.006l.034-1.125V97.546h2.983V115h-3.017zm7.973 0v-2.284l6.059-5.94a28.71 28.71 0 001.449-1.56c.387-.455.676-.895.87-1.321.193-.426.289-.881.289-1.364 0-.551-.125-1.022-.375-1.415a2.494 2.494 0 00-1.031-.92c-.437-.216-.935-.324-1.491-.324-.574 0-1.077.12-1.509.358a2.464 2.464 0 00-1.006.997c-.233.432-.349.946-.349 1.543h-3.009c0-1.108.253-2.071.759-2.89a5.123 5.123 0 012.088-1.9c.892-.449 1.915-.673 3.068-.673 1.171 0 2.199.219 3.085.656.887.438 1.574 1.037 2.063 1.798.494.762.741 1.631.741 2.608a5.18 5.18 0 01-.375 1.926c-.25.631-.69 1.33-1.321 2.097-.625.767-1.502 1.696-2.633 2.787l-3.009 3.06v.119h7.603V115h-11.966z" fill="#126F8C"/><path d="M241.068 131.023v1.25h-4.818v-1.25h4.818zm-4.5-3.75V136h-1.341v-8.727h1.341zm5.523 0V136h-1.341v-8.727h1.341zm5.994 8.909c-.788 0-1.479-.188-2.074-.563-.591-.375-1.053-.899-1.386-1.574-.33-.674-.494-1.462-.494-2.363 0-.909.164-1.703.494-2.381.333-.678.795-1.204 1.386-1.579.595-.375 1.286-.563 2.074-.563.788 0 1.478.188 2.068.563.595.375 1.057.901 1.387 1.579.333.678.5 1.472.5 2.381 0 .901-.167 1.689-.5 2.363-.33.675-.792 1.199-1.387 1.574-.59.375-1.28.563-2.068.563zm0-1.205c.599 0 1.091-.153 1.477-.46.387-.307.673-.71.858-1.21.186-.5.279-1.042.279-1.625 0-.584-.093-1.127-.279-1.631a2.732 2.732 0 00-.858-1.221c-.386-.311-.878-.466-1.477-.466-.598 0-1.091.155-1.477.466-.386.31-.672.717-.858 1.221a4.671 4.671 0 00-.278 1.631c0 .583.092 1.125.278 1.625.186.5.472.903.858 1.21.386.307.879.46 1.477.46zm12.729-7.704V136h-1.341v-8.727h1.341zm-.523 4.159v1.25c-.303.113-.604.214-.903.301-.299.083-.614.15-.943.199-.33.045-.692.068-1.086.068-.988 0-1.782-.267-2.38-.801-.595-.534-.892-1.335-.892-2.404v-2.795h1.341v2.795c0 .447.085.815.255 1.103a1.6 1.6 0 00.693.642c.292.14.62.21.983.21.569 0 1.082-.051 1.54-.153.462-.106.926-.245 1.392-.415zm4.142-1h2.5c1.023 0 1.805.259 2.347.778.541.519.812 1.176.812 1.972 0 .523-.121.998-.363 1.426a2.65 2.65 0 01-1.068 1.017c-.47.25-1.046.375-1.728.375h-3.659v-8.727h1.341v7.477h2.318c.531 0 .966-.14 1.307-.42.341-.281.511-.641.511-1.08 0-.462-.17-.839-.511-1.131-.341-.291-.776-.437-1.307-.437h-2.5v-1.25zm11.882.659v1.25h-4.613v-1.25h4.613zm-3.477-3.818V136h-1.341v-8.727h1.341zm6.159 8.909c-.788 0-1.479-.188-2.074-.563-.591-.375-1.053-.899-1.386-1.574-.33-.674-.494-1.462-.494-2.363 0-.909.164-1.703.494-2.381.333-.678.795-1.204 1.386-1.579.595-.375 1.286-.563 2.074-.563.788 0 1.477.188 2.068.563.595.375 1.057.901 1.387 1.579.333.678.5 1.472.5 2.381 0 .901-.167 1.689-.5 2.363-.33.675-.792 1.199-1.387 1.574-.591.375-1.28.563-2.068.563zm0-1.205c.599 0 1.091-.153 1.477-.46.387-.307.673-.71.858-1.21.186-.5.279-1.042.279-1.625 0-.584-.093-1.127-.279-1.631a2.732 2.732 0 00-.858-1.221c-.386-.311-.878-.466-1.477-.466-.598 0-1.091.155-1.477.466-.386.31-.672.717-.858 1.221a4.671 4.671 0 00-.278 1.631c0 .583.092 1.125.278 1.625.186.5.472.903.858 1.21.386.307.879.46 1.477.46z" fill="#383A3C"/><rect x="226.5" y="84.5" width="65" height="63" rx="7.5" stroke="#126F8C"/><rect x="12.5" y="12.5" width="295" height="143" rx="7.5" stroke="#C8CDD0"/><circle cx="12" cy="12" r="12" fill="#D9D9D9"/><circle cx="12" cy="12" r="12" fill="#CC6363"/><circle cx="12" cy="12" r="12" fill="url(#paint0_linear_1_444)" fill-opacity=".4"/><circle cx="12" cy="12" r="12" fill="url(#paint1_linear_1_444)" fill-opacity=".4"/><defs><linearGradient id="paint0_linear_1_444" x1="-2.212" y1="70.102" x2="12.093" y2="69.623" gradientUnits="userSpaceOnUse"><stop stop-color="#BE2050"/><stop offset="1" stop-color="#fff" stop-opacity="0"/></linearGradient><linearGradient id="paint1_linear_1_444" x1="20.556" y1="-116.308" x2="2.807" y2="-115.943" gradientUnits="userSpaceOnUse"><stop offset="0" stop-color="#BE5920"/><stop offset="1" stop-color="#fff" stop-opacity="0"/></linearGradient></defs></svg>