<svg width="292" height="156" viewBox="0 0 292 156" fill="none" xmlns="http://www.w3.org/2000/svg"><rect x="12.5" y="12.5" width="279" height="143" rx="7.5" fill="#fff"/><path d="M30.182 25.546h3.11v14.829h5.387v-14.83h3.094v14.83h5.343v-14.83h3.094V43H30.182V25.546zM53.984 43V29.91h3.085v5.283h1.125l3.937-5.284h3.716l-4.85 6.426L65.899 43h-3.732l-3.589-4.935H57.07V43h-3.085zm18.835.256c-1.279 0-2.386-.282-3.324-.844-.938-.563-1.665-1.35-2.182-2.36-.511-1.012-.767-2.194-.767-3.546 0-1.353.256-2.537.767-3.554.517-1.017 1.245-1.807 2.182-2.37.938-.562 2.045-.843 3.324-.843 1.278 0 2.386.28 3.324.843.937.563 1.662 1.353 2.173 2.37.517 1.017.776 2.201.776 3.554 0 1.352-.259 2.534-.776 3.545-.511 1.011-1.236 1.798-2.173 2.36-.938.563-2.046.845-3.324.845zm.017-2.472c.693 0 1.273-.19 1.739-.57.465-.387.812-.904 1.04-1.552.232-.648.349-1.37.349-2.165 0-.801-.117-1.525-.35-2.173-.227-.654-.574-1.173-1.04-1.56-.465-.386-1.045-.58-1.738-.58-.71 0-1.301.194-1.773.58-.466.387-.815.906-1.048 1.56-.227.648-.341 1.372-.341 2.173 0 .796.114 1.517.34 2.165.234.648.583 1.165 1.05 1.551.47.38 1.062.571 1.772.571zM80.806 43l-.016-2.54h.451c.341 0 .628-.077.861-.23.233-.153.426-.409.58-.767.153-.364.272-.852.358-1.466.085-.614.145-1.378.179-2.292l.23-5.796h9.545V43h-2.983V32.44h-3.758l-.205 4.22c-.05 1.09-.173 2.036-.366 2.837-.188.796-.455 1.452-.801 1.969-.341.517-.77.903-1.287 1.159-.517.25-1.128.375-1.833.375h-.954zm19.062.264c-.83 0-1.577-.148-2.242-.443a3.658 3.658 0 01-1.568-1.33c-.38-.585-.57-1.306-.57-2.164 0-.739.136-1.35.408-1.833a3.167 3.167 0 011.117-1.159 5.633 5.633 0 011.593-.656 12.965 12.965 0 011.85-.332c.767-.08 1.389-.151 1.866-.214.478-.068.824-.17 1.04-.306.222-.142.333-.361.333-.657v-.05c0-.643-.191-1.14-.571-1.492-.381-.352-.929-.529-1.645-.529-.756 0-1.355.165-1.799.495-.437.33-.733.718-.886 1.167l-2.88-.409c.227-.795.602-1.46 1.124-1.994a4.894 4.894 0 011.918-1.21c.756-.273 1.591-.41 2.506-.41.63 0 1.258.075 1.883.222a5.3 5.3 0 011.713.733 3.69 3.69 0 011.245 1.372c.318.58.477 1.304.477 2.174V43h-2.966v-1.798h-.102a3.777 3.777 0 01-.793 1.022c-.335.313-.758.566-1.27.759-.506.188-1.099.281-1.781.281zm.801-2.267c.619 0 1.156-.122 1.611-.366a2.71 2.71 0 001.048-.989c.25-.409.375-.855.375-1.338v-1.543c-.096.08-.261.154-.494.222a6.997 6.997 0 01-.767.179c-.284.051-.566.096-.844.136l-.724.103a5.372 5.372 0 00-1.236.306c-.364.142-.65.341-.861.597-.21.25-.315.574-.315.972 0 .568.207.997.622 1.286.415.29.943.435 1.585.435zM115.972 43V25.546h2.684l7.279 12.468h.162V25.545h2.718V43h-2.659l-7.287-12.41h-.162V43h-2.735zm15.11-5.165v-1.883h7.5v1.883h-7.5zm3.742-3.332c-.847 0-1.583-.18-2.208-.537a3.745 3.745 0 01-1.44-1.474c-.341-.625-.511-1.341-.511-2.148v-.887c0-.8.167-1.514.503-2.139a3.745 3.745 0 011.44-1.474c.625-.364 1.358-.546 2.199-.546.852 0 1.588.182 2.207.546.62.358 1.097.85 1.432 1.474.335.625.503 1.338.503 2.14v.886c0 .8-.168 1.517-.503 2.148a3.631 3.631 0 01-1.423 1.474c-.614.358-1.347.537-2.199.537zm0-1.977c.585 0 1.031-.2 1.338-.597.312-.398.469-.926.469-1.585v-.887c0-.653-.157-1.173-.469-1.56-.307-.391-.759-.587-1.355-.587-.597 0-1.048.196-1.355.588-.301.386-.452.906-.452 1.56v.886c0 .659.153 1.187.46 1.585.307.398.762.597 1.364.597zM142.145 43v-2.284l6.06-5.94a28.574 28.574 0 001.448-1.56c.387-.455.677-.895.87-1.321.193-.426.289-.88.289-1.364 0-.55-.124-1.022-.374-1.415a2.493 2.493 0 00-1.032-.92c-.437-.216-.934-.324-1.491-.324-.574 0-1.077.12-1.509.358a2.458 2.458 0 00-1.005.997c-.233.432-.35.946-.35 1.543h-3.008c0-1.108.252-2.071.758-2.89a5.123 5.123 0 012.088-1.9c.892-.449 1.915-.673 3.068-.673 1.171 0 2.199.219 3.086.656.886.438 1.573 1.037 2.062 1.798.494.762.742 1.631.742 2.608a5.18 5.18 0 01-.375 1.926c-.25.631-.691 1.33-1.321 2.097-.625.767-1.503 1.696-2.634 2.787l-3.008 3.06v.119h7.602V43h-11.966zm21.111.239c-1.267 0-2.392-.213-3.375-.64-.978-.426-1.745-1.008-2.301-1.747a4.102 4.102 0 01-.819-2.531 4.196 4.196 0 01.478-2.02 4.504 4.504 0 011.312-1.534 4.234 4.234 0 011.858-.793v-.119a3.693 3.693 0 01-2.182-1.372c-.551-.722-.824-1.554-.818-2.497a3.97 3.97 0 01.75-2.404c.506-.704 1.199-1.258 2.08-1.662.88-.409 1.886-.613 3.017-.613 1.119 0 2.116.204 2.991.614.881.403 1.574.957 2.08 1.661a3.99 3.99 0 01.767 2.404c0 .943-.282 1.775-.844 2.497a3.686 3.686 0 01-2.156 1.372v.12a4.117 4.117 0 011.841.792c.551.41.988.92 1.312 1.534.33.614.494 1.287.494 2.02 0 .943-.278 1.787-.835 2.531-.557.739-1.324 1.321-2.301 1.747-.971.427-2.088.64-3.349.64zm0-2.438c.653 0 1.221-.11 1.704-.332a2.657 2.657 0 001.125-.955c.267-.409.404-.88.409-1.415a2.641 2.641 0 00-.434-1.474 2.858 2.858 0 00-1.151-1.014c-.483-.244-1.034-.367-1.653-.367-.625 0-1.182.123-1.671.367a2.921 2.921 0 00-1.159 1.014 2.585 2.585 0 00-.409 1.474 2.478 2.478 0 00.392 1.415 2.68 2.68 0 001.125.946c.489.227 1.063.341 1.722.341zm0-7.952c.534 0 1.005-.107 1.414-.323a2.47 2.47 0 00.981-.904c.238-.386.36-.832.366-1.338-.006-.5-.125-.937-.358-1.312a2.313 2.313 0 00-.971-.878c-.415-.21-.893-.316-1.432-.316-.551 0-1.037.106-1.458.316a2.313 2.313 0 00-.971.878c-.228.375-.338.812-.333 1.312-.005.506.108.952.341 1.338.239.38.566.682.98.904.421.215.901.323 1.441.323z" fill="#080809"/><path d="M30.09 67.273c-.226 0-.429-.02-.607-.057a1.604 1.604 0 01-.37-.102l.341-1.182c.326.083.614.114.864.09a1.03 1.03 0 00.665-.335c.197-.197.377-.516.54-.96l.25-.681-3.227-8.773H30l2.41 6.954h.09l2.41-6.954h1.454l-3.705 10c-.167.45-.373.824-.62 1.119-.245.3-.531.52-.857.665a2.645 2.645 0 01-1.091.216zM36.627 64v-1.25h.319c.261 0 .479-.051.653-.153.174-.107.314-.29.42-.552.11-.265.194-.632.25-1.102a20.21 20.21 0 00.131-1.807l.16-3.863h5.817V64h-1.34v-7.477H39.83l-.136 3.113c-.03.716-.095 1.347-.194 1.892-.094.542-.24.997-.437 1.364-.193.367-.45.644-.773.83-.322.185-.725.278-1.21.278h-.455zm11.188.09a.99.99 0 01-.722-.3.985.985 0 01-.3-.722c0-.28.1-.52.3-.721a.986.986 0 01.722-.302c.28 0 .52.1.721.302.201.2.302.44.302.721a.963.963 0 01-.142.512c-.091.155-.214.28-.37.375a.974.974 0 01-.511.136zM64.63 52.364V64h-1.41V53.614h-5.864V64h-1.409V52.364h8.682zm3.524 14.909a3 3 0 01-.608-.057 1.604 1.604 0 01-.369-.102l.341-1.182c.326.083.614.114.864.09.25-.022.471-.134.665-.335.196-.197.376-.516.54-.96l.25-.681-3.228-8.773h1.454l2.41 6.954h.09l2.41-6.954h1.454l-3.704 10c-.167.45-.373.824-.62 1.119-.246.3-.532.52-.858.665a2.645 2.645 0 01-1.09.216zm8.043-12h1.34v7.477h3.296v-7.477h1.341v7.477h3.296v-7.477h1.34V64H76.197v-8.727zM89.259 64v-8.727h1.34v3.795h.887l3.136-3.795h1.727l-3.522 4.204L96.395 64h-1.727l-2.864-3.682h-1.205V64h-1.34zm9.934-1.977l4.205-6.75h1.545V64h-1.341v-6.75L99.421 64h-1.569v-8.727h1.341v6.75zm14.047-3v1.25h-4.818v-1.25h4.818zm-4.5-3.75V64h-1.341v-8.727h1.341zm5.523 0V64h-1.341v-8.727h1.341zm5.017 8.931a3.548 3.548 0 01-1.506-.312 2.582 2.582 0 01-1.074-.915c-.265-.401-.397-.886-.397-1.454 0-.5.098-.906.295-1.216.197-.315.46-.56.79-.739a4.14 4.14 0 011.091-.398c.401-.09.805-.162 1.21-.215.53-.069.96-.12 1.29-.154.333-.038.575-.1.727-.187.155-.087.233-.239.233-.455v-.045c0-.561-.153-.997-.46-1.307-.303-.31-.764-.466-1.381-.466-.64 0-1.142.14-1.506.42-.363.28-.619.58-.767.898l-1.272-.454c.227-.53.53-.944.909-1.24a3.411 3.411 0 011.25-.624 5.184 5.184 0 011.341-.182c.28 0 .602.034.965.102.368.065.722.2 1.063.404.345.204.631.513.858.926.227.413.341.966.341 1.659V64h-1.341v-1.182h-.068a2.36 2.36 0 01-.455.608c-.212.216-.494.4-.846.551-.353.152-.783.227-1.29.227zm.204-1.204c.531 0 .978-.104 1.341-.313a2.128 2.128 0 001.114-1.846v-1.227c-.057.068-.182.13-.375.187a6.29 6.29 0 01-.659.142 29.629 29.629 0 01-1.284.17 5.13 5.13 0 00-.978.222 1.687 1.687 0 00-.727.45c-.182.196-.273.465-.273.806 0 .466.173.818.518 1.057.348.235.789.352 1.323.352zm8.243-.59l-.091.613a12.43 12.43 0 01-.295 1.386 26.54 26.54 0 01-.403 1.392c-.141.436-.256.782-.347 1.04h-1.023l.193-.96c.08-.398.159-.843.239-1.335.083-.49.152-.99.205-1.5l.068-.637h1.454zm6.689-.796v-1.16l5.114-8.09h.841v1.795h-.568l-3.864 6.114v.09h6.886v1.25h-8.409zM139.893 64V52.364h1.341V64h-1.341zm5.062 0v-1.023l3.84-4.204c.451-.493.822-.92 1.114-1.284a4.75 4.75 0 00.648-1.034c.144-.326.216-.667.216-1.023 0-.41-.099-.763-.296-1.063a1.917 1.917 0 00-.795-.693 2.58 2.58 0 00-1.137-.244c-.447 0-.837.093-1.17.278a1.92 1.92 0 00-.767.767c-.178.33-.267.716-.267 1.16H145c0-.682.157-1.28.472-1.796a3.271 3.271 0 011.284-1.205c.545-.288 1.157-.431 1.835-.431.682 0 1.286.144 1.812.431.527.288.94.676 1.239 1.165.299.489.449 1.032.449 1.63 0 .429-.078.847-.233 1.257-.152.405-.417.857-.796 1.357-.374.497-.895 1.103-1.562 1.819l-2.614 2.795v.091h5.409V64h-7.34z" fill="#545758"/><path d="M35.585 104.273V113h-1.057v-7.79h-4.397V113h-1.057v-8.727h6.511zm1.996 11.182v-9h.971v1.039h.12c.073-.113.176-.258.306-.434a1.81 1.81 0 01.571-.478c.25-.142.588-.213 1.015-.213.55 0 1.036.138 1.457.414.42.275.748.666.984 1.172.236.505.354 1.102.354 1.789 0 .694-.118 1.294-.354 1.803-.236.506-.562.898-.98 1.176-.417.276-.899.413-1.444.413-.42 0-.758-.069-1.01-.208a1.87 1.87 0 01-.584-.482 6.332 6.332 0 01-.316-.452h-.085v3.461h-1.005zm.988-5.728c0 .495.073.931.218 1.309.145.375.356.669.635.882.278.21.619.315 1.022.315.42 0 .772-.111 1.053-.332.284-.225.497-.526.639-.904.145-.381.217-.804.217-1.27 0-.46-.07-.875-.213-1.244a1.924 1.924 0 00-.635-.882c-.28-.219-.635-.328-1.06-.328-.41 0-.754.103-1.032.311a1.862 1.862 0 00-.63.861c-.143.366-.214.794-.214 1.282zm9.068 3.409c-.63 0-1.174-.139-1.632-.417a2.806 2.806 0 01-1.052-1.176c-.245-.506-.367-1.094-.367-1.765 0-.67.123-1.261.367-1.772.247-.515.59-.915 1.031-1.202.443-.29.96-.435 1.551-.435.341 0 .678.057 1.01.171.332.113.635.298.908.554.272.253.49.588.652 1.005.162.418.243.932.243 1.543v.426h-5.046v-.869h4.023c0-.369-.074-.699-.222-.989a1.67 1.67 0 00-.622-.686 1.748 1.748 0 00-.946-.251c-.4 0-.747.099-1.04.298-.29.196-.512.452-.669.767a2.251 2.251 0 00-.234 1.014v.58c0 .494.085.913.256 1.257.173.341.413.601.72.78.307.176.663.264 1.07.264.264 0 .502-.037.715-.111a1.54 1.54 0 00.559-.341c.156-.153.277-.344.362-.571l.971.273a2.158 2.158 0 01-.515.869 2.52 2.52 0 01-.895.58 3.327 3.327 0 01-1.198.204zm3.542 1.739v-2.813h.545a2.487 2.487 0 00.597-1.026 5.39 5.39 0 00.187-.819c.051-.324.097-.714.136-1.172l.222-2.59h4.16v5.607h1.005v2.813h-1.006V113h-4.84v1.875h-1.006zm1.687-2.813h3.154v-4.67h-2.216l-.17 1.653c-.072.685-.16 1.283-.265 1.794-.105.512-.273.92-.503 1.223zm6.5.938v-6.545h5.147V113h-1.005v-5.608H60.37V113h-1.005zm9.643.136c-.59 0-1.11-.14-1.555-.422a2.862 2.862 0 01-1.04-1.18c-.247-.506-.37-1.097-.37-1.773 0-.681.123-1.277.37-1.785.25-.509.597-.904 1.04-1.185.446-.281.964-.422 1.555-.422s1.108.141 1.551.422c.446.281.793.676 1.04 1.185.25.508.375 1.104.375 1.785 0 .676-.125 1.267-.375 1.773a2.822 2.822 0 01-1.04 1.18c-.443.282-.96.422-1.55.422zm0-.903c.45 0 .818-.115 1.108-.345.29-.23.504-.533.644-.908a3.48 3.48 0 00.209-1.219c0-.437-.07-.845-.21-1.223a2.066 2.066 0 00-.643-.916c-.29-.233-.659-.349-1.108-.349-.449 0-.818.116-1.108.349-.29.233-.504.539-.643.916-.14.378-.209.786-.209 1.223 0 .438.07.844.209 1.219.139.375.354.678.643.908.29.23.66.345 1.108.345zm3.922.767v-.938h.238a.95.95 0 00.49-.115c.131-.079.236-.217.316-.413.082-.199.145-.474.187-.827.046-.355.078-.806.098-1.355l.12-2.897h4.363V113h-1.005v-5.608h-2.404l-.102 2.335c-.023.537-.071 1.01-.145 1.419a3.4 3.4 0 01-.328 1.023 1.498 1.498 0 01-.58.622c-.241.139-.544.209-.907.209h-.341zm9.584.153c-.415 0-.792-.078-1.13-.234a1.94 1.94 0 01-.805-.686c-.199-.301-.298-.665-.298-1.091 0-.375.074-.679.221-.912.148-.236.345-.42.593-.554a3.12 3.12 0 01.818-.298 10.1 10.1 0 01.907-.162c.398-.051.72-.09.968-.115.25-.029.431-.075.545-.141.117-.065.175-.179.175-.341v-.034c0-.42-.115-.747-.345-.98-.228-.233-.573-.349-1.036-.349-.48 0-.856.105-1.13.315-.272.21-.464.435-.574.673l-.955-.341c.17-.397.398-.707.682-.929.287-.224.6-.38.937-.468a3.89 3.89 0 011.006-.137 4 4 0 01.725.077c.275.048.54.149.796.303.259.153.473.385.644.694.17.31.256.725.256 1.245V113h-1.006v-.886h-.051a1.77 1.77 0 01-.341.456c-.16.162-.37.299-.635.413-.264.114-.587.17-.967.17zm.153-.903c.398 0 .733-.078 1.006-.234a1.602 1.602 0 00.835-1.385v-.921c-.043.051-.136.098-.281.141a4.63 4.63 0 01-.495.106 20.937 20.937 0 01-.963.128 3.89 3.89 0 00-.733.166 1.262 1.262 0 00-.545.337c-.136.148-.205.349-.205.605 0 .35.13.614.388.793.261.176.592.264.993.264zm8.722-5.795v.937h-3.034V113H87.35v-6.545h4.04zm3.054 6.698c-.415 0-.79-.078-1.129-.234a1.94 1.94 0 01-.805-.686c-.2-.301-.299-.665-.299-1.091 0-.375.074-.679.222-.912.148-.236.345-.42.592-.554a3.12 3.12 0 01.818-.298 10.1 10.1 0 01.908-.162c.398-.051.72-.09.967-.115.25-.029.432-.075.546-.141.116-.065.175-.179.175-.341v-.034c0-.42-.115-.747-.346-.98-.227-.233-.572-.349-1.035-.349-.48 0-.857.105-1.13.315-.272.21-.464.435-.575.673l-.954-.341c.17-.397.397-.707.682-.929.287-.224.599-.38.937-.468a3.89 3.89 0 011.006-.137 4 4 0 01.724.077c.276.048.541.149.797.303.259.153.473.385.644.694.17.31.255.725.255 1.245V113H96.44v-.886h-.052a1.773 1.773 0 01-.34.456c-.16.162-.371.299-.635.413-.265.114-.587.17-.968.17zm.154-.903c.397 0 .733-.078 1.005-.234a1.601 1.601 0 00.836-1.385v-.921c-.043.051-.137.098-.282.141a4.63 4.63 0 01-.494.106 21.062 21.062 0 01-.963.128c-.261.034-.506.09-.733.166a1.261 1.261 0 00-.546.337c-.136.148-.204.349-.204.605 0 .35.13.614.388.793.261.176.592.264.993.264zm7.426.886c-.631 0-1.175-.139-1.632-.417a2.806 2.806 0 01-1.052-1.176c-.245-.506-.367-1.094-.367-1.765 0-.67.122-1.261.367-1.772.247-.515.59-.915 1.031-1.202.443-.29.96-.435 1.551-.435.341 0 .677.057 1.01.171.332.113.635.298.907.554.273.253.491.588.652 1.005.162.418.243.932.243 1.543v.426h-5.045v-.869h4.023c0-.369-.074-.699-.222-.989a1.67 1.67 0 00-.622-.686 1.746 1.746 0 00-.946-.251c-.401 0-.747.099-1.04.298a1.96 1.96 0 00-.669.767 2.254 2.254 0 00-.234 1.014v.58c0 .494.085.913.255 1.257.174.341.414.601.721.78.306.176.663.264 1.069.264.264 0 .503-.037.716-.111.216-.077.402-.19.558-.341a1.55 1.55 0 00.363-.571l.971.273a2.149 2.149 0 01-.516.869 2.507 2.507 0 01-.894.58 3.334 3.334 0 01-1.198.204zm7.82-1.5l2.284-5.181h.954L110.253 113h-.818l-2.779-6.545h.938l2.25 5.181zm-2.574-5.181V113h-1.006v-6.545h1.006zm5.148 6.545v-6.545h1.005V113h-1.005zm5.505.136c-.591 0-1.109-.14-1.555-.422a2.863 2.863 0 01-1.04-1.18c-.247-.506-.371-1.097-.371-1.773 0-.681.124-1.277.371-1.785.25-.509.597-.904 1.04-1.185.446-.281.964-.422 1.555-.422s1.108.141 1.551.422c.446.281.793.676 1.04 1.185.25.508.375 1.104.375 1.785 0 .676-.125 1.267-.375 1.773a2.822 2.822 0 01-1.04 1.18c-.443.282-.96.422-1.551.422zm0-.903c.449 0 .818-.115 1.108-.345.29-.23.505-.533.644-.908a3.48 3.48 0 00.209-1.219c0-.437-.07-.845-.209-1.223a2.063 2.063 0 00-.644-.916c-.29-.233-.659-.349-1.108-.349-.449 0-.818.116-1.108.349a2.07 2.07 0 00-.643.916 3.518 3.518 0 00-.209 1.223c0 .438.07.844.209 1.219.139.375.354.678.643.908.29.23.659.345 1.108.345zm7.246.903c-.631 0-1.175-.139-1.632-.417a2.803 2.803 0 01-1.053-1.176c-.244-.506-.366-1.094-.366-1.765 0-.67.122-1.261.366-1.772a2.888 2.888 0 011.031-1.202c.443-.29.96-.435 1.551-.435.341 0 .678.057 1.01.171.333.113.635.298.908.554.273.253.49.588.652 1.005.162.418.243.932.243 1.543v.426h-5.046v-.869h4.023c0-.369-.074-.699-.221-.989a1.673 1.673 0 00-.623-.686 1.746 1.746 0 00-.946-.251c-.4 0-.747.099-1.039.298a1.96 1.96 0 00-.669.767 2.242 2.242 0 00-.235 1.014v.58c0 .494.085.913.256 1.257.173.341.413.601.72.78.307.176.663.264 1.07.264.264 0 .503-.037.716-.111.215-.077.402-.19.558-.341.156-.153.277-.344.362-.571l.972.273a2.171 2.171 0 01-.516.869c-.241.247-.54.441-.895.58a3.325 3.325 0 01-1.197.204zM28.921 128v-6.545h1.005v2.846h.665l2.352-2.846h1.296l-2.642 3.153L34.273 128h-1.296l-2.147-2.761h-.904V128h-1.005zm8.834.136c-.59 0-1.109-.14-1.555-.422a2.861 2.861 0 01-1.04-1.18c-.247-.506-.37-1.097-.37-1.773 0-.681.123-1.277.37-1.785.25-.509.597-.904 1.04-1.185.446-.281.964-.422 1.555-.422s1.108.141 1.551.422a2.81 2.81 0 011.04 1.185c.25.508.375 1.104.375 1.785 0 .676-.125 1.267-.375 1.773a2.822 2.822 0 01-1.04 1.18c-.443.282-.96.422-1.55.422zm0-.903c.45 0 .819-.115 1.108-.345.29-.23.505-.533.644-.908s.209-.781.209-1.219c0-.437-.07-.845-.21-1.223a2.065 2.065 0 00-.643-.916c-.29-.233-.659-.349-1.108-.349-.449 0-.818.116-1.108.349-.29.233-.504.539-.643.916-.14.378-.209.786-.209 1.223 0 .438.07.844.209 1.219.14.375.354.678.643.908.29.23.66.345 1.108.345zm3.922.767v-.938h.239a.953.953 0 00.49-.115c.13-.079.235-.217.315-.413.082-.199.145-.474.187-.827.046-.355.078-.806.098-1.355l.12-2.897h4.363V128h-1.005v-5.608H44.08l-.102 2.335c-.023.537-.071 1.01-.145 1.419-.07.407-.18.747-.328 1.023a1.498 1.498 0 01-.58.622c-.241.139-.544.209-.907.209h-.341zm11.407-4.21v.937h-3.818v-.937h3.819zm1.77 4.21v-6.545h2.676c.705 0 1.264.159 1.68.477.414.318.621.738.621 1.261 0 .398-.118.706-.353.925-.236.216-.539.362-.908.439.241.034.476.119.703.255.23.137.42.324.571.563.15.236.226.526.226.869 0 .336-.085.635-.256.899-.17.265-.414.473-.733.627-.318.153-.699.23-1.142.23h-3.085zm.955-.92h2.13c.347 0 .618-.083.814-.248.196-.164.294-.389.294-.673 0-.338-.098-.604-.294-.797-.196-.196-.467-.294-.814-.294h-2.13v2.012zm0-2.881h1.721c.27 0 .502-.037.695-.111a.986.986 0 00.443-.324.82.82 0 00.158-.503.74.74 0 00-.346-.647c-.23-.159-.546-.239-.95-.239h-1.72v1.824zm8.442 3.937c-.59 0-1.109-.14-1.555-.422a2.861 2.861 0 01-1.04-1.18c-.247-.506-.37-1.097-.37-1.773 0-.681.123-1.277.37-1.785.25-.509.597-.904 1.04-1.185.446-.281.965-.422 1.555-.422.591 0 1.108.141 1.552.422.446.281.792.676 1.04 1.185.25.508.374 1.104.374 1.785 0 .676-.125 1.267-.375 1.773a2.822 2.822 0 01-1.04 1.18c-.443.282-.96.422-1.55.422zm0-.903c.45 0 .819-.115 1.108-.345.29-.23.505-.533.644-.908s.209-.781.209-1.219c0-.437-.07-.845-.21-1.223a2.066 2.066 0 00-.643-.916c-.29-.233-.659-.349-1.108-.349-.448 0-.818.116-1.108.349-.29.233-.504.539-.643.916-.14.378-.209.786-.209 1.223 0 .438.07.844.209 1.219.14.375.354.678.644.908.29.23.659.345 1.107.345zm7.297.767v-.938h.239a.953.953 0 00.49-.115c.13-.079.235-.217.315-.413.082-.199.145-.474.188-.827.045-.355.078-.806.097-1.355l.12-2.897h4.363V128h-1.005v-5.608H73.95l-.102 2.335c-.023.537-.07 1.01-.145 1.419-.07.407-.18.747-.328 1.023a1.498 1.498 0 01-.58.622c-.241.139-.544.209-.907.209h-.341zm10.794-3.682v.938h-3.46v-.938h3.46zm-2.608-2.863V128h-1.006v-6.545h1.006zm4.62 6.681c-.592 0-1.11-.14-1.556-.422a2.862 2.862 0 01-1.04-1.18c-.247-.506-.37-1.097-.37-1.773 0-.681.123-1.277.37-1.785.25-.509.597-.904 1.04-1.185.446-.281.964-.422 1.555-.422s1.108.141 1.552.422c.445.281.792.676 1.04 1.185.25.508.374 1.104.374 1.785 0 .676-.125 1.267-.375 1.773a2.822 2.822 0 01-1.04 1.18c-.443.282-.96.422-1.55.422zm0-.903c.448 0 .817-.115 1.107-.345.29-.23.505-.533.644-.908s.209-.781.209-1.219c0-.437-.07-.845-.21-1.223a2.065 2.065 0 00-.643-.916c-.29-.233-.659-.349-1.108-.349-.448 0-.818.116-1.108.349-.29.233-.504.539-.643.916-.14.378-.209.786-.209 1.223 0 .438.07.844.209 1.219.14.375.354.678.643.908.29.23.66.345 1.108.345zm3.903 2.642v-2.813h.545c.134-.139.249-.289.345-.451.097-.162.18-.354.252-.575.074-.225.136-.498.187-.819.051-.324.097-.714.137-1.172l.221-2.59h4.16v5.607h1.005v2.813h-1.006V128h-4.84v1.875h-1.006zm1.687-2.813h3.154v-4.67h-2.216l-.17 1.653c-.072.685-.16 1.283-.265 1.794-.105.512-.273.92-.503 1.223zm9.244 1.074c-.63 0-1.175-.139-1.632-.417a2.806 2.806 0 01-1.052-1.176c-.245-.506-.367-1.094-.367-1.765 0-.67.122-1.261.367-1.772.247-.515.59-.915 1.03-1.202.444-.29.961-.435 1.552-.435a3.1 3.1 0 011.01.171c.332.113.635.298.908.554.272.253.49.588.652 1.005.161.418.242.932.242 1.543v.426h-5.045v-.869h4.023c0-.369-.074-.699-.222-.989a1.67 1.67 0 00-.622-.686 1.748 1.748 0 00-.946-.251c-.4 0-.747.099-1.04.298a1.96 1.96 0 00-.669.767 2.251 2.251 0 00-.234 1.014v.58c0 .494.085.913.255 1.257.174.341.414.601.72.78.307.176.664.264 1.07.264.264 0 .503-.037.716-.111.216-.077.402-.19.558-.341a1.55 1.55 0 00.363-.571l.971.273a2.158 2.158 0 01-.515.869 2.52 2.52 0 01-.895.58 3.328 3.328 0 01-1.198.204zm5.246-1.619l3.153-5.062h1.159V128h-1.005v-5.062L104.604 128h-1.176v-6.545h1.006v5.062zm2.489-7.244h.937c0 .46-.159.836-.477 1.129-.318.293-.75.439-1.296.439-.537 0-.964-.146-1.282-.439-.316-.293-.473-.669-.473-1.129h.937c0 .221.061.416.183.584.125.167.337.251.635.251.299 0 .512-.084.64-.251a.929.929 0 00.196-.584z" fill="#75797B"/><rect x="138.5" y="84.5" width="63" height="63" rx="7.5" fill="#fff"/><path d="M153.756 115.239c-1.267 0-2.392-.213-3.375-.64-.978-.426-1.745-1.008-2.301-1.747a4.1 4.1 0 01-.819-2.531 4.197 4.197 0 01.478-2.02 4.509 4.509 0 011.312-1.534 4.235 4.235 0 011.858-.793v-.119a3.693 3.693 0 01-2.182-1.372c-.551-.722-.824-1.554-.818-2.497a3.97 3.97 0 01.75-2.404c.506-.704 1.199-1.258 2.08-1.661.88-.41 1.886-.614 3.017-.614 1.119 0 2.116.204 2.991.614.881.403 1.574.957 2.08 1.661.511.705.767 1.506.767 2.404 0 .943-.282 1.775-.844 2.497a3.685 3.685 0 01-2.156 1.372v.119a4.118 4.118 0 011.841.793c.551.409.988.921 1.312 1.534.33.614.494 1.287.494 2.02 0 .943-.278 1.787-.835 2.531-.557.739-1.324 1.321-2.301 1.747-.971.427-2.088.64-3.349.64zm0-2.438c.653 0 1.221-.111 1.704-.332a2.664 2.664 0 001.125-.955c.267-.409.404-.88.409-1.415a2.642 2.642 0 00-.434-1.474 2.854 2.854 0 00-1.151-1.014c-.483-.245-1.034-.367-1.653-.367-.625 0-1.182.122-1.671.367a2.917 2.917 0 00-1.159 1.014 2.585 2.585 0 00-.409 1.474 2.476 2.476 0 00.392 1.415c.267.404.642.719 1.125.946.489.227 1.063.341 1.722.341zm0-7.952c.534 0 1.005-.108 1.414-.323.415-.216.742-.517.981-.904.238-.386.36-.832.366-1.338-.006-.5-.125-.937-.358-1.312a2.308 2.308 0 00-.971-.878c-.415-.21-.893-.316-1.432-.316-.551 0-1.037.105-1.458.316a2.308 2.308 0 00-.971.878c-.228.375-.338.812-.333 1.312-.005.506.108.952.341 1.338.239.381.566.682.98.904.421.215.901.323 1.441.323zm15.679 10.39a7.386 7.386 0 01-2.446-.435 5.762 5.762 0 01-2.147-1.406c-.637-.654-1.142-1.52-1.517-2.6-.375-1.085-.56-2.429-.554-4.031 0-1.494.159-2.827.477-3.997.318-1.171.775-2.159 1.372-2.966.597-.813 1.315-1.432 2.156-1.858.847-.426 1.793-.64 2.838-.64 1.097 0 2.069.217 2.915.648a5.497 5.497 0 012.063 1.773 5.62 5.62 0 01.971 2.523h-3.111c-.159-.67-.485-1.205-.98-1.602-.488-.404-1.108-.605-1.858-.605-1.21 0-2.142.525-2.795 1.576-.648 1.051-.975 2.495-.98 4.33h.119c.279-.5.639-.929 1.082-1.287a4.962 4.962 0 011.5-.827 5.307 5.307 0 011.782-.298c1.022 0 1.94.244 2.753.733a5.322 5.322 0 011.943 2.02c.477.852.713 1.829.707 2.932.006 1.147-.256 2.179-.784 3.093a5.691 5.691 0 01-2.207 2.148c-.944.523-2.043.781-3.299.776zm-.017-2.557c.62 0 1.174-.151 1.662-.452a3.263 3.263 0 001.159-1.219 3.415 3.415 0 00.418-1.721 3.39 3.39 0 00-.409-1.696 3.115 3.115 0 00-1.134-1.202c-.483-.295-1.034-.443-1.653-.443-.46 0-.889.088-1.287.264a3.208 3.208 0 00-1.04.733 3.46 3.46 0 00-.699 1.074c-.164.403-.25.835-.255 1.295a3.51 3.51 0 00.426 1.679 3.27 3.27 0 001.15 1.228c.489.306 1.043.46 1.662.46zm15.64 2.65c-1.404 0-2.608-.355-3.614-1.065-1-.716-1.77-1.747-2.31-3.094-.534-1.352-.801-2.98-.801-4.883.006-1.904.276-3.523.81-4.858.54-1.341 1.309-2.364 2.309-3.068 1.006-.705 2.208-1.057 3.606-1.057 1.397 0 2.599.352 3.605 1.057 1.005.704 1.775 1.727 2.309 3.068.54 1.341.81 2.96.81 4.858 0 1.909-.27 3.54-.81 4.892-.534 1.346-1.304 2.375-2.309 3.085-1 .71-2.202 1.065-3.605 1.065zm0-2.667c1.09 0 1.951-.537 2.582-1.611.636-1.08.954-2.668.954-4.764 0-1.387-.144-2.551-.434-3.495-.29-.943-.699-1.653-1.227-2.13a2.689 2.689 0 00-1.875-.725c-1.086 0-1.944.54-2.574 1.62-.631 1.074-.949 2.65-.955 4.73-.006 1.392.134 2.562.418 3.511.29.949.699 1.665 1.227 2.148a2.716 2.716 0 001.884.716z" fill="#126F8C"/><path d="M149.795 138.5v-3.75h.728c.178-.186.331-.386.46-.602.129-.216.24-.472.335-.767.099-.3.182-.663.25-1.091.068-.432.129-.953.182-1.563l.295-3.454h5.546v7.477h1.341v3.75h-1.341V136h-6.455v2.5h-1.341zm2.25-3.75h4.205v-6.227h-2.955l-.227 2.204a24.83 24.83 0 01-.352 2.392c-.14.682-.364 1.226-.671 1.631zm14.508-3.727v1.25h-4.819v-1.25h4.819zm-4.5-3.75V136h-1.341v-8.727h1.341zm5.522 0V136h-1.341v-8.727h1.341zm6.108 8.909c-.841 0-1.566-.186-2.176-.557a3.736 3.736 0 01-1.403-1.568c-.326-.674-.489-1.459-.489-2.352 0-.894.163-1.682.489-2.364.329-.686.788-1.22 1.375-1.602.591-.387 1.28-.58 2.068-.58.454 0 .903.076 1.346.227.444.152.847.398 1.211.739.363.337.653.784.869 1.341.216.557.324 1.242.324 2.057v.568h-6.727v-1.159h5.363c0-.493-.098-.932-.295-1.318a2.219 2.219 0 00-.83-.915c-.356-.224-.776-.335-1.261-.335-.534 0-.996.132-1.386.397a2.627 2.627 0 00-.893 1.023 3.01 3.01 0 00-.312 1.352v.773c0 .659.114 1.218.341 1.676.231.455.551.801.96 1.04.409.235.885.352 1.426.352.353 0 .671-.049.955-.147.288-.103.536-.254.744-.455.208-.205.369-.458.483-.761l1.296.363c-.137.44-.366.826-.688 1.159-.322.33-.72.587-1.193.773a4.425 4.425 0 01-1.597.273zm-1.841-10.364a.885.885 0 01-.636-.273.882.882 0 01-.273-.636c0-.261.091-.477.273-.648a.905.905 0 01.636-.261c.262 0 .478.087.648.261a.87.87 0 01.261.648.902.902 0 01-.261.636.848.848 0 01-.648.273zm3.273 0a.882.882 0 01-.636-.273.882.882 0 01-.273-.636c0-.261.091-.477.273-.648a.902.902 0 01.636-.261.87.87 0 01.648.261.87.87 0 01.261.648.902.902 0 01-.261.636.851.851 0 01-.648.273zm8.994 8.364l3.046-6.909h1.273L184.655 136h-1.091l-3.705-8.727h1.25l3 6.909zm-3.431-6.909V136h-1.341v-8.727h1.341zm6.863 8.727v-8.727h1.341V136h-1.341z" fill="#383A3C"/><rect x="138.5" y="84.5" width="63" height="63" rx="7.5" stroke="#126F8C"/><rect x="210.5" y="84.5" width="65" height="63" rx="7.5" fill="#fff"/><path d="M245.651 97.546V115h-3.162v-14.378h-.103l-4.082 2.608v-2.898l4.338-2.786h3.009z" fill="#126F8C"/><path d="M225.068 131.023v1.25h-4.818v-1.25h4.818zm-4.5-3.75V136h-1.341v-8.727h1.341zm5.523 0V136h-1.341v-8.727h1.341zm5.994 8.909c-.788 0-1.479-.188-2.074-.563-.591-.375-1.053-.899-1.386-1.574-.33-.674-.494-1.462-.494-2.363 0-.909.164-1.703.494-2.381.333-.678.795-1.204 1.386-1.579.595-.375 1.286-.563 2.074-.563.788 0 1.478.188 2.068.563.595.375 1.057.901 1.387 1.579.333.678.5 1.472.5 2.381 0 .901-.167 1.689-.5 2.363-.33.675-.792 1.199-1.387 1.574-.59.375-1.28.563-2.068.563zm0-1.205c.599 0 1.091-.153 1.477-.46.387-.307.673-.71.858-1.21.186-.5.279-1.042.279-1.625 0-.584-.093-1.127-.279-1.631a2.732 2.732 0 00-.858-1.221c-.386-.311-.878-.466-1.477-.466-.598 0-1.091.155-1.477.466-.386.31-.672.717-.858 1.221a4.671 4.671 0 00-.278 1.631c0 .583.092 1.125.278 1.625.186.5.472.903.858 1.21.386.307.879.46 1.477.46zm12.729-7.704V136h-1.341v-8.727h1.341zm-.523 4.159v1.25c-.303.113-.604.214-.903.301-.299.083-.614.15-.943.199-.33.045-.692.068-1.086.068-.988 0-1.782-.267-2.38-.801-.595-.534-.892-1.335-.892-2.404v-2.795h1.341v2.795c0 .447.085.815.255 1.103a1.6 1.6 0 00.693.642c.292.14.62.21.983.21.569 0 1.082-.051 1.54-.153.462-.106.926-.245 1.392-.415zm4.142-1h2.5c1.023 0 1.805.259 2.347.778.541.519.812 1.176.812 1.972 0 .523-.121.998-.363 1.426a2.65 2.65 0 01-1.068 1.017c-.47.25-1.046.375-1.728.375h-3.659v-8.727h1.341v7.477h2.318c.531 0 .966-.14 1.307-.42.341-.281.511-.641.511-1.08 0-.462-.17-.839-.511-1.131-.341-.291-.776-.437-1.307-.437h-2.5v-1.25zm11.882.659v1.25h-4.613v-1.25h4.613zm-3.477-3.818V136h-1.341v-8.727h1.341zm6.159 8.909c-.788 0-1.479-.188-2.074-.563-.591-.375-1.053-.899-1.386-1.574-.33-.674-.494-1.462-.494-2.363 0-.909.164-1.703.494-2.381.333-.678.795-1.204 1.386-1.579.595-.375 1.286-.563 2.074-.563.788 0 1.477.188 2.068.563.595.375 1.057.901 1.387 1.579.333.678.5 1.472.5 2.381 0 .901-.167 1.689-.5 2.363-.33.675-.792 1.199-1.387 1.574-.591.375-1.28.563-2.068.563zm0-1.205c.599 0 1.091-.153 1.477-.46.387-.307.673-.71.858-1.21.186-.5.279-1.042.279-1.625 0-.584-.093-1.127-.279-1.631a2.732 2.732 0 00-.858-1.221c-.386-.311-.878-.466-1.477-.466-.598 0-1.091.155-1.477.466-.386.31-.672.717-.858 1.221a4.671 4.671 0 00-.278 1.631c0 .583.092 1.125.278 1.625.186.5.472.903.858 1.21.386.307.879.46 1.477.46z" fill="#383A3C"/><rect x="210.5" y="84.5" width="65" height="63" rx="7.5" stroke="#126F8C"/><rect x="12.5" y="12.5" width="279" height="143" rx="7.5" stroke="#C8CDD0"/><circle cx="12" cy="12" r="12" fill="#D9D9D9"/><circle cx="12" cy="12" r="12" fill="#CC6363"/><circle cx="12" cy="12" r="12" fill="url(#paint0_linear_1_414)" fill-opacity=".4"/><circle cx="12" cy="12" r="12" fill="url(#paint1_linear_1_414)" fill-opacity=".4"/><defs><linearGradient id="paint0_linear_1_414" x1="-2.212" y1="70.102" x2="12.093" y2="69.623" gradientUnits="userSpaceOnUse"><stop stop-color="#BE2050"/><stop offset="1" stop-color="#fff" stop-opacity="0"/></linearGradient><linearGradient id="paint1_linear_1_414" x1="20.556" y1="-116.308" x2="2.807" y2="-115.943" gradientUnits="userSpaceOnUse"><stop offset="0" stop-color="#BE5920"/><stop offset="1" stop-color="#fff" stop-opacity="0"/></linearGradient></defs></svg>