<svg width="78" height="78" viewBox="0 0 78 78" fill="none" xmlns="http://www.w3.org/2000/svg"><path d="M34.667 78V56.333h8.666V78h-8.666zm34.991-10.942L54.275 51.783l6.175-6.175 15.275 15.384-6.067 6.066zm-61.316 0l-6.067-6.066L17.55 45.608l6.175 6.175L8.342 67.058z" fill="#DE4848"/><path fill-rule="evenodd" clip-rule="evenodd" d="M23.4 34.667a8.374 8.374 0 01-5.092-1.677 8.575 8.575 0 01-3.141-4.39L13 21.667H8.667c-2.384 0-4.425-.85-6.123-2.548C.848 17.423 0 15.383 0 13V0h78v13c0 2.383-.848 4.423-2.544 6.119-1.698 1.698-3.74 2.548-6.123 2.548H65l-2.817 7.366a8.932 8.932 0 01-3.141 4.06c-1.445 1.05-3.07 1.574-4.875 1.574H23.4zM54.6 26H23.4l-1.3-4.333h33.8L54.6 26z" fill="#1D1F20"/></svg>