<svg width="33" height="32" viewBox="0 0 33 32" fill="none" xmlns="http://www.w3.org/2000/svg"><path fill-rule="evenodd" clip-rule="evenodd" d="M31.273 23.703l.622-2.286a3.071 3.071 0 00-.088-1.892 3.185 3.185 0 00-1.137-1.475l-.18-1.482-.317-2.627a5.477 5.477 0 00-2.569-4.017 5.677 5.677 0 00-1.543-.662l-6.133-1.62a5.722 5.722 0 00-1.672-.187 5.62 5.62 0 00-2.364.617 5.585 5.585 0 00-1.897 1.595l-1.608 2.118-.906 1.195c-.319.031-.63.11-.925.232a3.147 3.147 0 00-1.844 2.081l-.621 2.286a3.047 3.047 0 00.026 1.686c.053.177.122.35.204.515l-.7 2.575c-.056.21-.067.421-.039.625a1.586 1.586 0 001.171 1.306l1.546.409a1.603 1.603 0 001.96-1.116l.413-1.524 12.364 3.267-.414 1.523a1.575 1.575 0 001.132 1.932l1.545.408c.64.17 1.294-.07 1.677-.554.128-.162.226-.35.283-.561l.699-2.575c.155-.103.302-.218.438-.345a3.07 3.07 0 00.877-1.447zm-20.449-7.04c.248-.912 1.031-1.356 1.959-1.11.927.244 1.946 1.979 1.698 2.89-.217.8-1.285.497-2.17.245l-.354-.098c-.927-.245-1.38-1.016-1.133-1.927zm16.171-2.349l.318 2.627-3.764-.995-8.6-2.271 1.607-2.119a2.398 2.398 0 011.137-.818 2.434 2.434 0 011.406-.05l6.134 1.62a2.392 2.392 0 011.571 1.323c.097.213.162.443.191.683zM25.3 21.301c.248-.911 2.01-1.911 2.938-1.666.927.245 1.38 1.016 1.133 1.927-.248.911-1.031 1.355-1.959 1.11-.113-.03-.232-.059-.356-.089-.894-.218-1.973-.481-1.756-1.282z" fill="#726868"/><path d="M7.166 14.885l-.62 2.286a4.585 4.585 0 00-.121 1.695l-1.76 1.429c-.329.267-.816-.021-.731-.432l.772-3.78a.447.447 0 00-.4-.532l-3.893-.372a.445.445 0 01-.207-.816l3.257-2.134a.443.443 0 00.1-.655L1.076 8.596c-.27-.324.021-.804.439-.72l3.834.76a.452.452 0 00.54-.394l.377-3.838c.041-.418.592-.554.828-.204L9.26 7.41c.148.22.457.266.664.098l3.02-2.45c.329-.267.815.021.731.432l-.565 2.77-.016.017c-.13.144-.26.289-.38.446l-1.607 2.118-.536.706c-1.636.432-2.959 1.702-3.404 3.34z" fill="#DCA946"/></svg>