<svg width="33" height="32" viewBox="0 0 33 32" fill="none" xmlns="http://www.w3.org/2000/svg"><path d="M14.226 32v-8.889h3.555V32h-3.555zm14.355-4.489l-6.31-6.267 2.532-2.533 6.267 6.311-2.489 2.49zm-25.155 0l-2.49-2.489 6.268-6.31 2.533 2.532-6.311 6.267z" fill="#DE4848"/><path fill-rule="evenodd" clip-rule="evenodd" d="M9.604 14.222c-.77 0-1.467-.23-2.09-.688a3.518 3.518 0 01-1.288-1.8l-.89-2.845H3.56c-.978 0-1.815-.349-2.512-1.045a3.42 3.42 0 01-1.044-2.51V0h32v5.333a3.42 3.42 0 01-1.044 2.51c-.697.697-1.534 1.046-2.512 1.046H26.67l-1.155 3.022a3.664 3.664 0 01-1.29 1.666 3.32 3.32 0 01-2 .645H9.605zm12.8-3.555h-12.8L9.07 8.889h13.867l-.534 1.778z" fill="#6F6F6F"/></svg>