<svg width="33" height="32" viewBox="0 0 33 32" fill="none" xmlns="http://www.w3.org/2000/svg"><path d="M10.557 32C4 28.305 2.274 24.807 3.26 20.03c.729-3.527 3.114-6.396 3.343-9.917 1.02 1.855 1.445 3.192 1.559 5.13 3.241-3.971 5.383-9.468 5.51-15.243 0 0 8.442 4.96 8.996 12.453.726-1.544 1.092-3.997.366-5.587 2.18 1.59 14.94 15.702-1.729 25.134 3.134-6.102.808-14.336-4.633-18.14.363 1.636-.274 7.735-2.681 10.415.667-4.478-.635-6.372-.635-6.372s-.447 2.509-2.18 5.042c-1.583 2.314-2.68 4.77-.62 9.055z" fill="#CE4E4E"/></svg>